<?xml version="1.0" encoding="UTF-8" standalone="no"?>
<svg
   xmlns:dc="http://purl.org/dc/elements/1.1/"
   xmlns:cc="http://creativecommons.org/ns#"
   xmlns:rdf="http://www.w3.org/1999/02/22-rdf-syntax-ns#"
   xmlns:svg="http://www.w3.org/2000/svg"
   xmlns="http://www.w3.org/2000/svg"
   viewBox="0 0 387.37332 415.12"
   height="415.12"
   width="387.37332"
   xml:space="preserve"
   id="svg2"
   version="1.1"><metadata
     id="metadata8"><rdf:RDF><cc:Work
         rdf:about=""><dc:format>image/svg+xml</dc:format><dc:type
           rdf:resource="http://purl.org/dc/dcmitype/StillImage" /></cc:Work></rdf:RDF></metadata><defs
     id="defs6"><clipPath
       id="clipPath24"
       clipPathUnits="userSpaceOnUse"><path
         id="path22"
         d="m 2883.9,2005.06 c 0,47.31 -323.13,-344.68 -1432.28,-344.68 -1109.151,0 -1414.8231,358.2 -1432.2919,344.68 0,-612.14 641.2579,-1108.38 1432.2919,-1108.38 791.03,0 1432.28,496.24 1432.28,1108.38 z" /></clipPath><radialGradient
       id="radialGradient30"
       spreadMethod="pad"
       gradientTransform="matrix(1086.46,0,0,-1086.46,1451.62,1452.85)"
       gradientUnits="userSpaceOnUse"
       r="1"
       cy="0"
       cx="0"
       fy="0"
       fx="0"><stop
         id="stop26"
         offset="0"
         style="stop-opacity:1;stop-color:#f6836c" /><stop
         id="stop28"
         offset="1"
         style="stop-opacity:1;stop-color:#ab1a2b" /></radialGradient></defs><g
     transform="matrix(1.3333333,0,0,-1.3333333,0,415.12)"
     id="g10"><g
       transform="scale(0.1)"
       id="g12"><path
         id="path14"
         style="fill:#27963c;fill-opacity:1;fill-rule:nonzero;stroke:none"
         d="m 2883.9,2005.06 c 0,612.15 -641.25,1108.39 -1432.28,1108.39 -791.034,0 -1432.2919,-496.24 -1432.2919,-1108.39 0,-612.14 641.2579,-1108.38 1432.2919,-1108.38 791.03,0 1432.28,496.24 1432.28,1108.38" /><path
         id="path16"
         style="fill:#27963c;fill-opacity:1;fill-rule:nonzero;stroke:none"
         d="m 19.3281,2005.06 c 0,-612.14 641.2579,-1108.38 1432.2919,-1108.38 791.03,0 1432.28,496.24 1432.28,1108.38 H 19.3281" /><g
         id="g18"><g
           clip-path="url(#clipPath24)"
           id="g20"><path
             id="path32"
             style="fill:url(#radialGradient30);fill-opacity:1;fill-rule:nonzero;stroke:none"
             d="m 2883.9,2005.06 c 0,47.31 -323.13,-344.68 -1432.28,-344.68 -1109.151,0 -1414.8231,358.2 -1432.2919,344.68 0,-612.14 641.2579,-1108.38 1432.2919,-1108.38 791.03,0 1432.28,496.24 1432.28,1108.38" /></g></g><path
         id="path34"
         style="fill:#80cc28;fill-opacity:1;fill-rule:nonzero;stroke:none"
         d="M 2869.4,2005.08 H 21.6602 C 59.0859,1993.29 381.539,1660.4 1450.88,1660.4 c 980.78,0 1346.89,306.44 1418.52,344.68" /><path
         id="path36"
         style="fill:#80cc28;fill-opacity:1;fill-rule:nonzero;stroke:none"
         d="m 1173.32,2975.18 c 0,0 390.29,-53.84 328.34,-344.54 0,0 -24.78,145.35 -328.34,344.54" /><path
         id="path38"
         style="fill:#80cc28;fill-opacity:1;fill-rule:nonzero;stroke:none"
         d="m 2143.7,3042.34 c 0,0 -686.18,-79.07 -577.26,-506.04 0,0 43.57,213.48 577.26,506.04" /><path
         id="path40"
         style="fill:#fcd405;fill-opacity:1;fill-rule:nonzero;stroke:none"
         d="m 1135.12,2506.14 c -10.3,10.3 -23.45,15.75 -38.03,15.75 -14.58,0 -27.74,-5.45 -38.02,-15.74 -10.31,-10.28 -15.76,-23.45 -15.76,-38.04 v -198.3 c 0,-28.08 -4.48,-52.55 -13.28,-72.76 -8.8,-20.17 -20.33,-36.83 -34.276,-49.5 -14.051,-12.76 -30.211,-22.33 -48.047,-28.45 -36.652,-12.56 -76.828,-12.56 -114,0.03 -18.105,6.12 -34.398,15.68 -48.41,28.42 -13.91,12.64 -25.27,29.22 -33.762,49.3 -8.578,20.26 -12.918,44.8 -12.918,72.96 v 76.54 c 0,14.59 -5.449,27.74 -15.762,38.05 -10.296,10.29 -23.449,15.73 -38.019,15.73 -14.566,0 -27.723,-5.44 -38.031,-15.74 -10.297,-10.3 -15.746,-23.45 -15.746,-38.04 v -76.54 c 0,-28.08 -4.473,-52.56 -13.274,-72.76 -8.801,-20.17 -20.336,-36.83 -34.277,-49.5 -14.028,-12.74 -30.32,-22.3 -48.414,-28.42 -37.219,-12.58 -77.371,-12.58 -114,-0.03 -17.848,6.12 -34.008,15.69 -48.047,28.45 -13.957,12.67 -25.492,29.33 -34.281,49.49 -8.813,20.19 -13.27,44.67 -13.27,72.77 v 198.3 c 0,14.59 -5.449,27.76 -15.75,38.03 -10.297,10.3 -23.449,15.75 -38.031,15.75 -14.578,0 -27.735,-5.45 -38.02,-15.74 -10.308,-10.28 -15.761,-23.45 -15.761,-38.04 v -198.3 c 0,-44.73 7.714,-84.41 22.933,-117.93 15.16,-33.44 35.188,-61.62 59.524,-83.76 24.336,-22.16 52.472,-38.91 83.625,-49.8 72.441,-25.37 148.672,-20.75 218.269,12.98 32.582,15.78 60.207,38.33 82.434,67.19 8.328,-10.89 17.527,-20.9 27.519,-29.96 16.492,-14.96 34.696,-27.45 54.067,-37.12 19.062,-9.56 39.41,-16.92 60.492,-21.89 20.996,-4.94 42.582,-7.44 64.156,-7.44 31.449,0 63.02,5.46 93.832,16.24 31.155,10.9 59.295,27.66 83.625,49.8 24.31,22.12 44.34,50.3 59.53,83.76 15.21,33.55 22.93,73.23 22.93,117.93 v 198.3 c 0,14.59 -5.45,27.76 -15.75,38.03" /><path
         id="path42"
         style="fill:#fcd405;fill-opacity:1;fill-rule:nonzero;stroke:none"
         d="m 1555.51,2270.68 c 0,-28.68 -4.34,-53.35 -12.89,-73.31 -8.52,-19.88 -20.08,-36.69 -34.34,-49.93 -13.71,-12.69 -29.81,-22.21 -47.86,-28.31 -37.27,-12.58 -77.32,-12.59 -114.51,0 -18.07,6.1 -34.31,15.78 -48.28,28.74 -13.99,12.97 -25.41,29.62 -33.92,49.5 -8.56,19.93 -12.89,44.6 -12.89,73.31 0,28.25 4.23,52.85 12.4,72.79 8.77,20.11 20.3,36.77 34.28,49.48 14.04,12.77 30.21,22.34 48.05,28.46 18.31,6.26 37.69,9.45 57.61,9.45 19.36,0 38.64,-3.19 57.26,-9.48 18.09,-6.12 34.38,-15.68 48.39,-28.42 13.87,-12.62 25.07,-29.16 33.43,-49.49 8.8,-20.23 13.27,-44.71 13.27,-72.79 z m 177.83,-169.52 c -4.35,6.93 -10.07,12.66 -16.82,16.89 -8.07,5.22 -15.46,12.15 -22.01,20.65 -6.84,8.85 -12.65,18.8 -17.25,29.53 -4.7,10.97 -8.29,22.38 -10.65,33.91 -2.35,11.46 -3.54,22.82 -3.54,33.76 v 232.21 c 0,14.59 -5.45,27.76 -15.75,38.03 -10.29,10.3 -23.45,15.75 -38.03,15.75 -14.58,0 -27.73,-5.45 -38.02,-15.74 -5.02,-5.01 -8.89,-10.7 -11.53,-16.9 -18.16,13.11 -37.87,23.66 -58.93,31.51 -61.22,22.76 -128,23.6 -191.48,1.42 -31.11,-10.89 -59.37,-27.62 -83.96,-49.72 -24.69,-22.2 -44.77,-50.44 -59.68,-83.96 -14.88,-33.5 -22.43,-73.15 -22.43,-117.82 0,-44.75 7.72,-84.43 22.92,-117.92 15.14,-33.38 35.13,-61.68 59.45,-84.12 24.38,-22.5 52.55,-39.43 83.72,-50.32 30.78,-10.78 62.35,-16.24 93.81,-16.24 37.02,0 73.88,7.49 109.57,22.26 33.71,13.96 63.19,35.45 88.23,64.57 6.53,-11.65 14.01,-22.16 22.29,-31.28 9.27,-10.25 21.03,-20.27 34.79,-29.66 8.6,-6.02 18.27,-9.32 28.79,-9.79 l 1.88,-0.03 c 10.26,0 20.48,3.41 30.35,10.11 11.05,7.51 18.47,18.91 21.46,32.97 2.99,14.14 0.48,28 -7.18,39.93" /><path
         id="path44"
         style="fill:#fcd405;fill-opacity:1;fill-rule:nonzero;stroke:none"
         d="m 2268.44,2509.01 c -10.27,8.54 -21.49,12.88 -33.35,12.88 h -260.72 c -1.68,0 -4.22,0 -7.87,5.45 -2.49,3.49 -3,6.34 -1.78,10.19 12.07,38.83 30.85,67.58 55.62,85.28 13.38,9.26 27.84,16.17 42.97,20.53 15.42,4.44 31.74,6.69 48.47,6.69 15.45,0 28.79,5.64 38.05,15.75 10.3,10.3 15.73,23.44 15.73,38.03 0,14.57 -5.43,27.73 -15.73,38.03 -10.3,10.3 -23.45,15.74 -38.05,15.74 -28.39,0 -56.7,-4.38 -84.14,-13.01 -27.71,-8.73 -53.72,-22.27 -77.3,-40.27 -23.69,-18.07 -44.04,-40.62 -60.48,-67.01 -16.61,-26.62 -27.85,-58.63 -33.34,-94.7 -1.26,-7.09 -3.58,-12.81 -6.52,-16.77 -2.35,-2.84 -4.79,-3.93 -8.7,-3.93 h -141.76 c -11.85,0 -23.07,-4.34 -33.34,-12.88 l -2.32,-2.33 c -8.56,-10.26 -12.9,-21.48 -12.9,-33.34 0,-11.88 4.34,-23.11 12.91,-33.36 l 2.3,-2.3 c 10.27,-8.57 21.49,-12.91 33.35,-12.91 h 140.03 c 4.37,0 6.72,-1.37 8.38,-2.87 3.94,-5.01 3.94,-8.33 3.94,-9.45 v -460.89 c 0,-14.58 5.45,-27.74 15.74,-38.03 10.3,-10.3 23.46,-15.75 38.04,-15.75 15.45,0 28.79,5.64 38.03,15.75 10.3,10.29 15.75,23.45 15.75,38.03 v 460.89 c 0,1.08 0,4.18 3.46,8.84 4.69,3.48 7.78,3.48 8.85,3.48 h 263.33 c 11.87,0 23.09,4.34 33.36,12.91 l 2.33,2.33 c 8.55,10.28 12.88,21.48 12.88,33.33 0,11.82 -4.33,23.02 -12.87,33.31 l -2.35,2.36" /><path
         id="path46"
         style="fill:#fcd405;fill-opacity:1;fill-rule:nonzero;stroke:none"
         d="m 2508.1,2270.68 c 0,-28.68 -4.34,-53.35 -12.89,-73.31 -8.52,-19.88 -20.08,-36.69 -34.34,-49.93 -13.71,-12.69 -29.81,-22.21 -47.86,-28.31 -37.27,-12.58 -77.31,-12.59 -114.51,0 -18.07,6.1 -34.31,15.78 -48.28,28.74 -13.99,12.97 -25.41,29.62 -33.93,49.5 -8.55,19.93 -12.88,44.6 -12.88,73.31 0,28.25 4.22,52.85 12.4,72.79 8.76,20.11 20.3,36.77 34.28,49.48 14.04,12.77 30.21,22.34 48.05,28.46 18.3,6.26 37.69,9.45 57.61,9.45 19.36,0 38.63,-3.19 57.26,-9.48 18.08,-6.12 34.37,-15.68 48.39,-28.42 13.87,-12.62 25.07,-29.16 33.43,-49.49 8.8,-20.23 13.27,-44.71 13.27,-72.79 z m 177.83,-169.52 c -4.35,6.93 -10.07,12.66 -16.82,16.89 -8.07,5.22 -15.47,12.15 -22.01,20.65 -6.84,8.85 -12.65,18.8 -17.25,29.53 -4.71,10.97 -8.29,22.38 -10.65,33.91 -2.35,11.46 -3.54,22.82 -3.54,33.76 v 232.21 c 0,14.59 -5.45,27.76 -15.75,38.03 -10.3,10.3 -23.45,15.75 -38.03,15.75 -14.58,0 -27.73,-5.45 -38.02,-15.74 -5.03,-5.01 -8.89,-10.7 -11.54,-16.9 -18.15,13.11 -37.86,23.66 -58.92,31.51 -61.22,22.76 -128,23.6 -191.48,1.42 -31.12,-10.89 -59.37,-27.62 -83.97,-49.72 -24.69,-22.2 -44.77,-50.44 -59.67,-83.96 -14.88,-33.5 -22.43,-73.15 -22.43,-117.82 0,-44.75 7.72,-84.43 22.92,-117.92 15.14,-33.38 35.13,-61.68 59.44,-84.12 24.39,-22.5 52.56,-39.43 83.72,-50.32 30.79,-10.78 62.36,-16.24 93.82,-16.24 37.02,0 73.88,7.49 109.56,22.26 33.72,13.96 63.2,35.45 88.24,64.57 6.53,-11.65 14,-22.16 22.29,-31.28 9.27,-10.25 21.03,-20.27 34.78,-29.66 8.6,-6.02 18.28,-9.32 28.8,-9.79 l 1.87,-0.03 c 10.27,0 20.48,3.41 30.36,10.11 11.05,7.51 18.47,18.91 21.45,32.97 3,14.14 0.49,28 -7.17,39.93" /><path
         id="path48"
         style="fill:#27963c;fill-opacity:1;fill-rule:nonzero;stroke:none"
         d="m 582.141,321.289 -14.852,69.063 h -0.43 l -14.843,-69.063 z m 4.086,95.742 40.664,-153.621 h -32.274 l -7.101,32.488 h -40.879 l -7.102,-32.488 h -32.273 l 40.664,153.621 h 38.301" /><path
         id="path50"
         style="fill:#27963c;fill-opacity:1;fill-rule:nonzero;stroke:none"
         d="m 658.52,297.41 c 0,-5.019 1.324,-9.078 3.98,-12.16 2.652,-3.09 6.488,-4.621 11.508,-4.621 4.59,0 8.25,1.141 10.976,3.441 2.719,2.289 4.086,5.731 4.086,10.328 0,3.723 -1.074,6.563 -3.226,8.493 -2.153,1.937 -4.66,3.48 -7.528,4.629 l -20.875,7.531 c -8.171,2.871 -14.343,6.918 -18.5,12.16 -4.168,5.23 -6.242,11.937 -6.242,20.117 0,4.723 0.785,9.211 2.364,13.442 1.578,4.23 4.093,7.921 7.535,11.082 3.441,3.148 7.851,5.668 13.23,7.539 5.379,1.847 11.867,2.789 19.477,2.789 13.48,0 23.449,-2.871 29.906,-8.602 6.453,-5.738 9.684,-13.848 9.684,-24.316 v -4.742 h -26.68 c 0,6.031 -0.973,10.441 -2.906,13.242 -1.942,2.797 -5.348,4.199 -10.219,4.199 -3.738,0 -6.992,-1.051 -9.793,-3.121 -2.797,-2.09 -4.199,-5.199 -4.199,-9.36 0,-2.878 0.898,-5.449 2.691,-7.75 1.793,-2.289 5.199,-4.242 10.219,-5.808 l 17.863,-6.024 c 9.32,-3.16 15.922,-7.289 19.793,-12.378 3.871,-5.09 5.813,-12.008 5.813,-20.758 0,-6.172 -1.082,-11.512 -3.231,-16.024 -2.152,-4.527 -5.129,-8.297 -8.93,-11.297 -3.8,-3.019 -8.32,-5.171 -13.554,-6.461 -5.239,-1.289 -11.008,-1.929 -17.324,-1.929 -8.321,0 -15.239,0.789 -20.762,2.359 -5.524,1.57 -9.899,3.949 -13.125,7.102 -3.227,3.16 -5.488,6.988 -6.778,11.508 -1.289,4.531 -1.933,9.582 -1.933,15.171 v 4.09 h 26.68 v -3.871" /><path
         id="path52"
         style="fill:#27963c;fill-opacity:1;fill-rule:nonzero;stroke:none"
         d="m 754.047,297.41 c 0,-5.019 1.324,-9.078 3.98,-12.16 2.653,-3.09 6.489,-4.621 11.508,-4.621 4.59,0 8.246,1.141 10.977,3.441 2.718,2.289 4.09,5.731 4.09,10.328 0,3.723 -1.079,6.563 -3.231,8.493 -2.152,1.937 -4.66,3.48 -7.527,4.629 l -20.875,7.531 c -8.172,2.871 -14.348,6.918 -18.5,12.16 -4.164,5.23 -6.242,11.937 -6.242,20.117 0,4.723 0.789,9.211 2.363,13.442 1.578,4.23 4.094,7.921 7.535,11.082 3.441,3.148 7.852,5.668 13.23,7.539 5.379,1.847 11.868,2.789 19.473,2.789 13.485,0 23.453,-2.871 29.91,-8.602 6.453,-5.738 9.684,-13.848 9.684,-24.316 v -4.742 h -26.684 c 0,6.031 -0.968,10.441 -2.902,13.242 -1.941,2.797 -5.348,4.199 -10.223,4.199 -3.734,0 -6.992,-1.051 -9.789,-3.121 -2.797,-2.09 -4.199,-5.199 -4.199,-9.36 0,-2.878 0.898,-5.449 2.691,-7.75 1.793,-2.289 5.2,-4.242 10.219,-5.808 l 17.863,-6.024 c 9.321,-3.16 15.922,-7.289 19.793,-12.378 3.872,-5.09 5.813,-12.008 5.813,-20.758 0,-6.172 -1.078,-11.512 -3.231,-16.024 -2.152,-4.527 -5.128,-8.297 -8.929,-11.297 -3.801,-3.019 -8.321,-5.171 -13.555,-6.461 -5.238,-1.289 -11.012,-1.929 -17.324,-1.929 -8.32,0 -15.238,0.789 -20.762,2.359 -5.519,1.57 -9.894,3.949 -13.125,7.102 -3.226,3.16 -5.488,6.988 -6.777,11.508 -1.289,4.531 -1.934,9.582 -1.934,15.171 v 4.09 h 26.68 v -3.871" /><path
         id="path54"
         style="fill:#27963c;fill-opacity:1;fill-rule:nonzero;stroke:none"
         d="m 854.094,304.93 c 0.285,-5.008 0.965,-9.321 2.043,-12.91 1.074,-3.579 2.687,-6.372 4.84,-8.379 2.152,-2.02 5.019,-3.012 8.609,-3.012 6.023,0 10.18,3.152 12.48,9.461 2.289,6.308 3.442,16.711 3.442,31.199 0,14.481 -1.153,24.891 -3.442,31.199 -2.3,6.313 -6.457,9.473 -12.48,9.473 -3.59,0 -6.457,-1.012 -8.609,-3.012 -2.153,-2.008 -3.766,-4.82 -4.84,-8.398 -1.078,-3.582 -1.758,-7.891 -2.043,-12.91 -0.289,-5.02 -0.434,-10.469 -0.434,-16.352 0,-5.891 0.145,-11.34 0.434,-16.359 z m -27.754,42.609 c 1.57,7.602 4.152,13.949 7.742,19.051 3.586,5.082 8.281,8.949 14.094,11.609 5.808,2.653 12.941,3.981 21.41,3.981 8.891,0.148 16.277,-1.039 22.156,-3.539 5.887,-2.52 10.547,-6.352 13.988,-11.52 3.446,-5.16 5.879,-11.551 7.317,-19.152 1.43,-7.61 2.152,-16.489 2.152,-26.68 0,-9.898 -0.789,-18.648 -2.367,-26.25 -1.582,-7.609 -4.164,-13.949 -7.742,-19.039 -3.59,-5.102 -8.289,-8.859 -14.098,-11.301 -5.812,-2.429 -12.945,-3.648 -21.406,-3.648 -8.898,-0.153 -16.285,0.969 -22.164,3.328 -5.883,2.371 -10.543,6.09 -13.984,11.191 -3.442,5.09 -5.883,11.469 -7.321,19.149 -1.433,7.672 -2.148,16.519 -2.148,26.57 0,9.891 0.789,18.641 2.371,26.25" /><path
         id="path56"
         style="fill:#27963c;fill-opacity:1;fill-rule:nonzero;stroke:none"
         d="m 986.309,345.82 c -0.364,2.719 -1.004,5.2 -1.938,7.43 -0.933,2.211 -2.258,4.012 -3.98,5.371 -1.723,1.359 -4.02,2.047 -6.883,2.047 -3.59,0 -6.531,-0.828 -8.824,-2.477 -2.297,-1.652 -4.02,-4.089 -5.164,-7.32 -1.153,-3.223 -1.938,-7.312 -2.368,-12.262 -0.429,-4.937 -0.644,-10.789 -0.644,-17.531 0,-7.18 0.215,-13.308 0.644,-18.398 0.43,-5.102 1.215,-9.289 2.368,-12.59 1.144,-3.301 2.761,-5.699 4.839,-7.211 2.082,-1.5 4.766,-2.25 8.075,-2.25 5.015,0 8.675,2.152 10.968,6.453 2.289,4.297 3.446,11.188 3.446,20.656 h 28.402 c 0,-15.207 -3.41,-26.789 -10.23,-34.758 -6.805,-7.96 -18.106,-11.929 -33.883,-11.929 -7.461,0 -13.949,0.898 -19.473,2.679 -5.519,1.801 -10.109,5.02 -13.769,9.692 -3.657,4.66 -6.418,10.898 -8.282,18.707 -1.871,7.82 -2.797,17.543 -2.797,29.16 0,11.91 1.145,21.77 3.442,29.582 2.293,7.82 5.519,14.059 9.683,18.719 4.157,4.66 9.106,7.93 14.844,9.801 5.738,1.847 12.051,2.789 18.938,2.789 13.765,0 24.129,-4.012 31.087,-12.051 6.96,-8.039 10.44,-18.938 10.44,-32.699 h -28.402 c 0,2.871 -0.184,5.66 -0.539,8.39" /><path
         id="path58"
         style="fill:#27963c;fill-opacity:1;fill-rule:nonzero;stroke:none"
         d="M 1061.5,379.172 V 263.41 h -29.69 v 115.762 z m 0,39.59 v -25.391 h -29.69 v 25.391 h 29.69" /><path
         id="path60"
         style="fill:#27963c;fill-opacity:1;fill-rule:nonzero;stroke:none"
         d="m 1129.92,317.52 c -2.29,-0.918 -4.37,-1.61 -6.23,-2.04 -6.03,-1.289 -10.34,-3.449 -12.91,-6.449 -2.59,-3.019 -3.88,-7.101 -3.88,-12.269 0,-4.442 0.86,-8.25 2.58,-11.41 1.73,-3.153 4.59,-4.723 8.61,-4.723 2.01,0 4.09,0.32 6.24,0.973 2.15,0.636 4.12,1.668 5.92,3.109 1.79,1.437 3.26,3.301 4.41,5.598 1.15,2.293 1.72,5.019 1.72,8.171 v 22.809 c -2.01,-1.578 -4.16,-2.828 -6.46,-3.769 z m -47.76,28.949 c 0,6.742 1.07,12.371 3.23,16.883 2.15,4.519 5.05,8.179 8.71,10.98 3.66,2.789 7.96,4.797 12.91,6.02 4.95,1.218 10.22,1.828 15.81,1.828 8.89,0 16.07,-0.86 21.52,-2.578 5.45,-1.731 9.68,-4.172 12.7,-7.313 3.01,-3.168 5.05,-6.93 6.13,-11.301 1.07,-4.379 1.61,-9.148 1.61,-14.308 v -60.899 c 0,-5.441 0.25,-9.672 0.75,-12.691 0.51,-3.012 1.47,-6.231 2.91,-9.68 h -28.4 c -1.01,1.871 -1.76,3.84 -2.26,5.922 -0.5,2.078 -0.97,4.117 -1.4,6.129 h -0.43 c -3.45,-6.02 -7.42,-9.93 -11.94,-11.731 -4.52,-1.781 -10.37,-2.679 -17.54,-2.679 -5.16,0 -9.54,0.898 -13.13,2.679 -3.58,1.801 -6.45,4.27 -8.6,7.43 -2.15,3.149 -3.73,6.699 -4.74,10.649 -1,3.953 -1.5,7.851 -1.5,11.73 0,5.449 0.57,10.141 1.72,14.09 1.15,3.949 2.91,7.312 5.27,10.109 2.37,2.801 5.38,5.121 9.04,6.992 3.66,1.872 8.07,3.52 13.23,4.95 l 16.79,4.519 c 4.44,1.153 7.53,2.731 9.25,4.731 1.72,2.011 2.58,4.949 2.58,8.832 0,4.437 -1.04,7.918 -3.12,10.429 -2.08,2.508 -5.63,3.77 -10.65,3.77 -4.59,0 -8.03,-1.371 -10.33,-4.102 -2.29,-2.718 -3.44,-6.371 -3.44,-10.961 v -3.226 h -26.68 v 2.797" /><path
         id="path62"
         style="fill:#27963c;fill-opacity:1;fill-rule:nonzero;stroke:none"
         d="m 1222.01,412.309 v -33.137 h 17.21 v -20.223 h -17.21 v -62.621 c 0,-4.59 0.68,-7.848 2.05,-9.777 1.36,-1.949 4.19,-2.91 8.49,-2.91 1.15,0 2.3,0.039 3.45,0.097 1.14,0.071 2.22,0.184 3.22,0.332 v -20.66 c -3.3,0 -6.49,-0.109 -9.57,-0.32 -3.09,-0.219 -6.35,-0.32 -9.79,-0.32 -5.74,0 -10.44,0.398 -14.09,1.179 -3.66,0.789 -6.46,2.36 -8.39,4.731 -1.94,2.371 -3.27,5.492 -3.99,9.359 -0.71,3.879 -1.07,8.75 -1.07,14.633 v 66.277 h -15.06 v 20.223 h 15.06 v 33.137 h 29.69" /><path
         id="path64"
         style="fill:#27963c;fill-opacity:1;fill-rule:nonzero;stroke:none"
         d="M 1280.32,379.172 V 263.41 h -29.69 v 115.762 z m 0,39.59 v -25.391 h -29.69 v 25.391 h 29.69" /><path
         id="path66"
         style="fill:#27963c;fill-opacity:1;fill-rule:nonzero;stroke:none"
         d="m 1327.44,304.93 c 0.28,-5.008 0.96,-9.321 2.04,-12.91 1.08,-3.579 2.69,-6.372 4.84,-8.379 2.15,-2.02 5.02,-3.012 8.61,-3.012 6.03,0 10.18,3.152 12.48,9.461 2.29,6.308 3.44,16.711 3.44,31.199 0,14.481 -1.15,24.891 -3.44,31.199 -2.3,6.313 -6.45,9.473 -12.48,9.473 -3.59,0 -6.46,-1.012 -8.61,-3.012 -2.15,-2.008 -3.76,-4.82 -4.84,-8.398 -1.08,-3.582 -1.76,-7.891 -2.04,-12.91 -0.29,-5.02 -0.43,-10.469 -0.43,-16.352 0,-5.891 0.14,-11.34 0.43,-16.359 z m -27.76,42.609 c 1.57,7.602 4.16,13.949 7.75,19.051 3.58,5.082 8.28,8.949 14.09,11.609 5.81,2.653 12.94,3.981 21.41,3.981 8.89,0.148 16.28,-1.039 22.16,-3.539 5.88,-2.52 10.54,-6.352 13.99,-11.52 3.44,-5.16 5.88,-11.551 7.31,-19.152 1.43,-7.61 2.15,-16.489 2.15,-26.68 0,-9.898 -0.79,-18.648 -2.36,-26.25 -1.59,-7.609 -4.17,-13.949 -7.75,-19.039 -3.59,-5.102 -8.28,-8.859 -14.09,-11.301 -5.81,-2.429 -12.95,-3.648 -21.41,-3.648 -8.9,-0.153 -16.28,0.969 -22.16,3.328 -5.89,2.371 -10.55,6.09 -13.99,11.191 -3.44,5.09 -5.88,11.469 -7.32,19.149 -1.43,7.672 -2.15,16.519 -2.15,26.57 0,9.891 0.79,18.641 2.37,26.25" /><path
         id="path68"
         style="fill:#27963c;fill-opacity:1;fill-rule:nonzero;stroke:none"
         d="m 1432.87,379.172 v -13.551 h 0.43 c 3.15,5.731 7.24,9.918 12.26,12.578 5.02,2.653 10.76,3.981 17.21,3.981 9.47,0 16.75,-2.578 21.84,-7.739 5.09,-5.171 7.64,-13.562 7.64,-25.179 V 263.41 h -29.69 v 79.828 c 0,6.024 -1.01,10.223 -3.01,12.582 -2.02,2.371 -5.24,3.559 -9.69,3.559 -10.47,0 -15.7,-6.391 -15.7,-19.149 v -76.82 h -29.7 v 115.762 h 28.41" /><path
         id="path70"
         style="fill:#27963c;fill-opacity:1;fill-rule:nonzero;stroke:none"
         d="m 1608.44,349.91 c 7.45,0 13.19,1.75 17.21,5.27 4.01,3.511 6.02,9.429 6.02,17.75 0,14.199 -7.17,21.3 -21.51,21.3 h -14.63 v -44.32 z m 13.34,67.121 c 12.91,0 22.95,-3.261 30.12,-9.781 7.17,-6.531 10.77,-16.469 10.77,-29.809 0,-10.32 -2.09,-18.75 -6.24,-25.269 -4.17,-6.531 -10.63,-10.731 -19.38,-12.59 v -0.434 c 7.75,-1.148 13.42,-3.66 17,-7.539 3.59,-3.859 5.81,-10.097 6.67,-18.711 0.3,-2.867 0.51,-5.988 0.65,-9.359 0.14,-3.367 0.29,-7.141 0.43,-11.301 0.29,-8.168 0.72,-14.41 1.3,-18.707 0.86,-4.312 2.71,-7.25 5.58,-8.832 v -1.289 h -33.56 c -1.58,2.149 -2.59,4.629 -3.02,7.422 -0.43,2.809 -0.72,5.707 -0.85,8.707 l -0.87,29.492 c -0.29,6.02 -1.79,10.758 -4.52,14.199 -2.72,3.442 -7.31,5.161 -13.77,5.161 h -16.56 V 263.41 h -30.99 v 153.621 h 57.24" /><path
         id="path72"
         style="fill:#27963c;fill-opacity:1;fill-rule:nonzero;stroke:none"
         d="m 1750.66,423.699 -21.08,-30.969 h -20.23 l 11.62,30.969 z m -12.48,-77.551 c -0.43,3.372 -1.18,6.243 -2.25,8.602 -1.09,2.359 -2.59,4.16 -4.52,5.379 -1.94,1.211 -4.42,1.832 -7.43,1.832 -3.01,0 -5.48,-0.691 -7.42,-2.039 -1.94,-1.371 -3.48,-3.172 -4.63,-5.391 -1.15,-2.222 -1.97,-4.691 -2.48,-7.422 -0.49,-2.718 -0.75,-5.461 -0.75,-8.179 v -4.512 h 30.34 c -0.14,4.441 -0.43,8.352 -0.86,11.73 z M 1708.7,307.52 c 0,-3.442 0.26,-6.77 0.75,-10.008 0.51,-3.223 1.33,-6.09 2.48,-8.602 1.15,-2.512 2.65,-4.519 4.53,-6.031 1.85,-1.5 4.15,-2.25 6.88,-2.25 5.02,0 8.67,1.793 10.97,5.371 2.29,3.582 3.87,9.039 4.73,16.359 h 26.68 c -0.57,-13.488 -4.16,-23.738 -10.76,-30.769 -6.59,-7.039 -16.99,-10.539 -31.19,-10.539 -10.76,0 -19.15,1.789 -25.18,5.371 -6.02,3.578 -10.47,8.316 -13.34,14.207 -2.87,5.883 -4.62,12.48 -5.27,19.793 -0.64,7.316 -0.97,14.629 -0.97,21.949 0,7.738 0.54,15.199 1.62,22.367 1.07,7.18 3.23,13.551 6.45,19.153 3.23,5.597 7.85,10.039 13.88,13.339 6.02,3.301 14.06,4.95 24.1,4.95 8.6,0 15.66,-1.399 21.19,-4.2 5.52,-2.789 9.86,-6.742 13.02,-11.82 3.15,-5.101 5.3,-11.269 6.45,-18.512 1.15,-7.25 1.72,-15.308 1.72,-24.207 v -6.671 h -58.74 v -9.25" /><path
         id="path74"
         style="fill:#27963c;fill-opacity:1;fill-rule:nonzero;stroke:none"
         d="m 1810.8,306.23 c 0.35,-3.589 1.08,-6.781 2.15,-9.582 1.07,-2.789 2.58,-5.019 4.52,-6.668 1.93,-1.648 4.48,-2.468 7.64,-2.468 3.15,0 5.77,0.82 7.85,2.468 2.08,1.649 3.73,3.911 4.95,6.782 1.21,2.867 2.08,6.347 2.58,10.437 0.51,4.082 0.75,8.571 0.75,13.449 0,14.051 -1.11,24.024 -3.33,29.903 -2.23,5.879 -6.28,8.828 -12.16,8.828 -3.3,0 -5.96,-0.719 -7.96,-2.16 -2.01,-1.438 -3.59,-3.758 -4.73,-6.989 -1.16,-3.218 -1.91,-7.531 -2.26,-12.91 -0.36,-5.379 -0.54,-11.949 -0.54,-19.691 0,-4.008 0.18,-7.82 0.54,-11.399 z m 58.85,-37.011 c 0,-14.918 -3.7,-26.098 -11.09,-33.559 -7.39,-7.461 -19.76,-11.191 -37.11,-11.191 -12.62,0 -22.35,2.679 -29.16,8.062 -6.81,5.379 -10.22,13.02 -10.22,22.918 h 28.41 c 0,-3.73 1.5,-6.668 4.51,-8.828 1.44,-0.992 2.98,-1.781 4.63,-2.359 1.65,-0.571 3.41,-0.864 5.27,-0.864 6.03,0 10.26,1.942 12.7,5.813 2.43,3.871 3.65,8.68 3.65,14.418 v 15.269 h -0.43 c -3.01,-4.296 -6.7,-7.738 -11.07,-10.32 -4.39,-2.59 -8.94,-3.879 -13.67,-3.879 -11.76,0 -20.62,4.481 -26.57,13.449 -5.96,8.961 -8.93,23.993 -8.93,45.082 0,6.731 0.39,13.622 1.18,20.649 0.79,7.031 2.44,13.383 4.95,19.043 2.51,5.668 6.16,10.297 10.98,13.879 4.8,3.578 11.22,5.379 19.25,5.379 4.16,0 8.46,-1.149 12.91,-3.442 4.45,-2.297 8.1,-6.449 10.97,-12.476 h 0.43 v 12.91 h 28.41 V 269.219" /><path
         id="path76"
         style="fill:#27963c;fill-opacity:1;fill-rule:nonzero;stroke:none"
         d="M 1921.28,379.172 V 263.41 h -29.69 v 115.762 z m 0,39.59 v -25.391 h -29.69 v 25.391 h 29.69" /><path
         id="path78"
         style="fill:#27963c;fill-opacity:1;fill-rule:nonzero;stroke:none"
         d="m 1968.4,304.93 c 0.29,-5.008 0.98,-9.321 2.05,-12.91 1.07,-3.579 2.68,-6.372 4.84,-8.379 2.15,-2.02 5.02,-3.012 8.61,-3.012 6.02,0 10.18,3.152 12.48,9.461 2.29,6.308 3.43,16.711 3.43,31.199 0,14.481 -1.14,24.891 -3.43,31.199 -2.3,6.313 -6.46,9.473 -12.48,9.473 -3.59,0 -6.46,-1.012 -8.61,-3.012 -2.16,-2.008 -3.77,-4.82 -4.84,-8.398 -1.07,-3.582 -1.76,-7.891 -2.05,-12.91 -0.28,-5.02 -0.43,-10.469 -0.43,-16.352 0,-5.891 0.15,-11.34 0.43,-16.359 z m -27.76,42.609 c 1.59,7.602 4.16,13.949 7.75,19.051 3.58,5.082 8.29,8.949 14.1,11.609 5.8,2.653 12.94,3.981 21.41,3.981 8.88,0.148 16.28,-1.039 22.15,-3.539 5.88,-2.52 10.55,-6.352 13.99,-11.52 3.45,-5.16 5.88,-11.551 7.31,-19.152 1.44,-7.61 2.16,-16.489 2.16,-26.68 0,-9.898 -0.79,-18.648 -2.37,-26.25 -1.57,-7.609 -4.16,-13.949 -7.75,-19.039 -3.58,-5.102 -8.28,-8.859 -14.09,-11.301 -5.81,-2.429 -12.95,-3.648 -21.4,-3.648 -8.9,-0.153 -16.28,0.969 -22.17,3.328 -5.88,2.371 -10.54,6.09 -13.99,11.191 -3.43,5.09 -5.87,11.469 -7.31,19.149 -1.44,7.672 -2.15,16.519 -2.15,26.57 0,9.891 0.78,18.641 2.36,26.25" /><path
         id="path80"
         style="fill:#27963c;fill-opacity:1;fill-rule:nonzero;stroke:none"
         d="m 2073.84,379.172 v -13.551 h 0.43 c 3.15,5.731 7.23,9.918 12.26,12.578 5.02,2.653 10.76,3.981 17.21,3.981 9.47,0 16.75,-2.578 21.85,-7.739 5.08,-5.171 7.63,-13.562 7.63,-25.179 V 263.41 h -29.69 v 79.828 c 0,6.024 -1.01,10.223 -3.01,12.582 -2.01,2.371 -5.24,3.559 -9.69,3.559 -10.47,0 -15.7,-6.391 -15.7,-19.149 v -76.82 h -29.69 v 115.762 h 28.4" /><path
         id="path82"
         style="fill:#27963c;fill-opacity:1;fill-rule:nonzero;stroke:none"
         d="m 2200.57,317.52 c -2.3,-0.918 -4.38,-1.61 -6.24,-2.04 -6.03,-1.289 -10.34,-3.449 -12.91,-6.449 -2.59,-3.019 -3.88,-7.101 -3.88,-12.269 0,-4.442 0.86,-8.25 2.59,-11.41 1.72,-3.153 4.59,-4.723 8.6,-4.723 2,0 4.09,0.32 6.24,0.973 2.15,0.636 4.12,1.668 5.92,3.109 1.79,1.437 3.26,3.301 4.4,5.598 1.16,2.293 1.73,5.019 1.73,8.171 v 22.809 c -2.01,-1.578 -4.16,-2.828 -6.45,-3.769 z m -47.78,28.949 c 0,6.742 1.09,12.371 3.24,16.883 2.14,4.519 5.05,8.179 8.71,10.98 3.66,2.789 7.97,4.797 12.91,6.02 4.95,1.218 10.22,1.828 15.82,1.828 8.88,0 16.06,-0.86 21.51,-2.578 5.45,-1.731 9.68,-4.172 12.7,-7.313 3,-3.168 5.05,-6.93 6.13,-11.301 1.07,-4.379 1.61,-9.148 1.61,-14.308 v -60.899 c 0,-5.441 0.25,-9.672 0.75,-12.691 0.5,-3.012 1.48,-6.231 2.91,-9.68 h -28.41 c -1,1.871 -1.75,3.84 -2.25,5.922 -0.51,2.078 -0.97,4.117 -1.4,6.129 h -0.43 c -3.45,-6.02 -7.42,-9.93 -11.94,-11.731 -4.52,-1.781 -10.37,-2.679 -17.54,-2.679 -5.17,0 -9.54,0.898 -13.13,2.679 -3.58,1.801 -6.45,4.27 -8.6,7.43 -2.15,3.149 -3.73,6.699 -4.74,10.649 -1,3.953 -1.5,7.851 -1.5,11.73 0,5.449 0.57,10.141 1.72,14.09 1.15,3.949 2.91,7.312 5.27,10.109 2.37,2.801 5.38,5.121 9.04,6.992 3.66,1.872 8.07,3.52 13.23,4.95 l 16.79,4.519 c 4.44,1.153 7.52,2.731 9.24,4.731 1.73,2.011 2.59,4.949 2.59,8.832 0,4.437 -1.04,7.918 -3.12,10.429 -2.08,2.508 -5.63,3.77 -10.65,3.77 -4.6,0 -8.04,-1.371 -10.33,-4.102 -2.29,-2.718 -3.44,-6.371 -3.44,-10.961 v -3.226 h -26.69 v 2.797" /><path
         id="path84"
         style="fill:#27963c;fill-opacity:1;fill-rule:nonzero;stroke:none"
         d="M 2287.27,417.031 V 263.41 h -29.69 v 153.621 h 29.69" /><path
         id="path86"
         style="fill:#27963c;fill-opacity:1;fill-rule:nonzero;stroke:none"
         d="m 2363.01,346.148 c -0.43,3.372 -1.18,6.243 -2.26,8.602 -1.08,2.359 -2.59,4.16 -4.52,5.379 -1.93,1.211 -4.41,1.832 -7.42,1.832 -3.02,0 -5.49,-0.691 -7.42,-2.039 -1.95,-1.371 -3.49,-3.172 -4.63,-5.391 -1.15,-2.222 -1.97,-4.691 -2.48,-7.422 -0.5,-2.718 -0.75,-5.461 -0.75,-8.179 v -4.512 h 30.34 c -0.15,4.441 -0.43,8.352 -0.86,11.73 z m -29.48,-38.628 c 0,-3.442 0.25,-6.77 0.75,-10.008 0.51,-3.223 1.33,-6.09 2.48,-8.602 1.14,-2.512 2.64,-4.519 4.52,-6.031 1.85,-1.5 4.15,-2.25 6.88,-2.25 5.02,0 8.68,1.793 10.97,5.371 2.3,3.582 3.88,9.039 4.74,16.359 h 26.68 c -0.58,-13.488 -4.16,-23.738 -10.76,-30.769 -6.6,-7.039 -17,-10.539 -31.2,-10.539 -10.76,0 -19.15,1.789 -25.17,5.371 -6.03,3.578 -10.48,8.316 -13.34,14.207 -2.87,5.883 -4.63,12.48 -5.28,19.793 -0.64,7.316 -0.96,14.629 -0.96,21.949 0,7.738 0.54,15.199 1.61,22.367 1.07,7.18 3.23,13.551 6.45,19.153 3.24,5.597 7.86,10.039 13.88,13.339 6.03,3.301 14.06,4.95 24.1,4.95 8.61,0 15.67,-1.399 21.19,-4.2 5.52,-2.789 9.87,-6.742 13.02,-11.82 3.16,-5.101 5.3,-11.269 6.46,-18.512 1.14,-7.25 1.72,-15.308 1.72,-24.207 v -6.671 h -58.74 v -9.25" /><path
         id="path88"
         style="fill:#27963c;fill-opacity:1;fill-rule:nonzero;stroke:none"
         d="m 156.664,68.3086 c 1.941,-6.3672 6.133,-9.5703 12.59,-9.5703 6.598,0 10.863,3.2031 12.801,9.5703 1.933,6.3906 2.906,15.8906 2.906,28.5234 0,12.617 -0.973,22.117 -2.906,28.508 -1.938,6.379 -6.203,9.582 -12.801,9.582 -6.457,0 -10.649,-3.203 -12.59,-9.582 -1.937,-6.391 -2.902,-15.891 -2.902,-28.508 0,-12.6328 0.965,-22.1328 2.902,-28.5234 z M 185.82,51.2109 c -3.3,-5.4492 -6.992,-9.25 -11.078,-11.4023 -4.094,-2.1484 -9.144,-3.2188 -15.172,-3.2188 -12.191,0 -21.164,4.6485 -26.894,13.9805 -5.742,9.3203 -8.61,24.75 -8.61,46.2617 0,21.508 2.868,37.039 8.61,46.578 5.73,9.539 14.703,14.309 26.894,14.309 5.594,0 10.364,-1.149 14.309,-3.438 3.941,-2.301 7.492,-5.742 10.652,-10.332 h 0.43 v 48.621 h 29.691 V 38.9492 H 186.25 v 12.2617 h -0.43" /><path
         id="path90"
         style="fill:#27963c;fill-opacity:1;fill-rule:nonzero;stroke:none"
         d="m 289.316,121.68 c -0.429,3.371 -1.187,6.242 -2.261,8.609 -1.075,2.359 -2.582,4.16 -4.516,5.379 -1.937,1.211 -4.414,1.82 -7.426,1.82 -3.011,0 -5.484,-0.679 -7.422,-2.039 -1.933,-1.359 -3.476,-3.16 -4.625,-5.379 -1.152,-2.218 -1.972,-4.699 -2.476,-7.422 -0.5,-2.718 -0.75,-5.457 -0.75,-8.179 v -4.52 h 30.336 c -0.149,4.449 -0.43,8.352 -0.86,11.731 z M 259.84,83.0586 c 0,-3.4492 0.25,-6.7773 0.75,-10.0078 0.504,-3.2227 1.324,-6.0899 2.476,-8.6016 1.149,-2.5078 2.653,-4.5195 4.516,-6.0273 1.867,-1.5039 4.16,-2.25 6.887,-2.25 5.019,0 8.676,1.7773 10.976,5.3672 2.289,3.582 3.871,9.0429 4.731,16.3515 h 26.679 c -0.578,-13.4804 -4.16,-23.7422 -10.757,-30.7695 -6.602,-7.0313 -16.996,-10.5313 -31.2,-10.5313 -10.757,0 -19.152,1.7813 -25.171,5.3711 -6.028,3.5782 -10.473,8.3204 -13.34,14.211 -2.871,5.8672 -4.629,12.4765 -5.274,19.789 -0.644,7.3086 -0.968,14.6289 -0.968,21.9375 0,7.7496 0.539,15.2106 1.613,22.3826 1.078,7.168 3.226,13.547 6.457,19.149 3.226,5.59 7.855,10.039 13.875,13.34 6.023,3.3 14.058,4.949 24.101,4.949 8.606,0 15.668,-1.399 21.192,-4.199 5.523,-2.79 9.863,-6.739 13.015,-11.829 3.157,-5.089 5.309,-11.269 6.457,-18.5 1.149,-7.25 1.723,-15.32 1.723,-24.2105 V 92.3086 H 259.84 v -9.25" /><path
         id="path92"
         style="fill:#27963c;fill-opacity:1;fill-rule:nonzero;stroke:none"
         d="m 355.801,72.9414 c 0,-5.0195 1.324,-9.0703 3.98,-12.1601 2.653,-3.0821 6.489,-4.6094 11.508,-4.6094 4.59,0 8.246,1.1367 10.977,3.4297 2.718,2.2968 4.086,5.7382 4.086,10.3281 0,3.7305 -1.075,6.5703 -3.227,8.5 -2.152,1.9297 -4.664,3.4805 -7.527,4.6289 l -20.875,7.5312 c -8.176,2.8711 -14.348,6.9102 -18.5,12.1602 -4.168,5.23 -6.243,11.941 -6.243,20.109 0,4.731 0.786,9.211 2.364,13.45 1.578,4.23 4.094,7.921 7.535,11.082 3.441,3.148 7.851,5.668 13.23,7.539 5.375,1.851 11.868,2.789 19.473,2.789 13.481,0 23.453,-2.867 29.906,-8.61 6.457,-5.738 9.684,-13.839 9.684,-24.308 v -4.742 h -26.68 c 0,6.031 -0.972,10.441 -2.902,13.23 -1.942,2.813 -5.348,4.199 -10.223,4.199 -3.734,0 -6.992,-1.039 -9.789,-3.109 -2.797,-2.09 -4.199,-5.207 -4.199,-9.367 0,-2.871 0.898,-5.453 2.691,-7.742 1.789,-2.301 5.2,-4.239 10.219,-5.809 l 17.859,-6.031 c 9.325,-3.149 15.926,-7.2816 19.797,-12.3714 3.871,-5.0898 5.813,-12.0078 5.813,-20.7578 0,-6.1719 -1.082,-11.5195 -3.231,-16.0313 -2.152,-4.5195 -5.132,-8.289 -8.929,-11.3007 -3.805,-3.0079 -8.321,-5.1602 -13.555,-6.4493 -5.238,-1.289 -11.012,-1.9297 -17.324,-1.9297 -8.321,0 -15.239,0.7891 -20.762,2.3594 -5.523,1.5703 -9.898,3.9414 -13.125,7.1016 -3.227,3.1484 -5.488,6.9883 -6.777,11.5078 -1.289,4.5234 -1.934,9.5703 -1.934,15.1719 v 4.0898 h 26.68 v -3.8789" /><path
         id="path94"
         style="fill:#27963c;fill-opacity:1;fill-rule:nonzero;stroke:none"
         d="m 526.848,123.082 c 6.164,0 11.148,1.859 14.949,5.598 3.801,3.718 5.703,9.531 5.703,17.422 0,7.738 -1.648,13.628 -4.945,17.636 -3.301,4.024 -8.825,6.032 -16.571,6.032 h -12.91 v -46.688 z m 9.465,69.488 c 7.886,0 14.523,-1.332 19.902,-3.968 5.379,-2.661 9.719,-6.141 13.019,-10.442 3.293,-4.301 5.664,-9.219 7.098,-14.738 1.434,-5.531 2.152,-11.152 2.152,-16.891 0,-7.89 -1.183,-14.781 -3.546,-20.66 -2.372,-5.883 -5.668,-10.68 -9.899,-14.41 -4.234,-3.731 -9.359,-6.531 -15.387,-8.391 -6.023,-1.871 -12.695,-2.8 -20.007,-2.8 H 513.074 V 38.9492 H 482.09 V 192.57 h 54.223" /><path
         id="path96"
         style="fill:#27963c;fill-opacity:1;fill-rule:nonzero;stroke:none"
         d="m 621.305,154.711 v -15.5 h 0.429 c 3.012,5.598 6.668,10.078 10.969,13.449 4.305,3.371 9.539,5.059 15.711,5.059 0.859,0 1.754,-0.039 2.691,-0.11 0.926,-0.078 1.825,-0.179 2.688,-0.32 v -28.398 c -1.582,0.14 -3.117,0.238 -4.629,0.32 -1.504,0.07 -3.047,0.109 -4.621,0.109 -2.586,0 -5.168,-0.359 -7.75,-1.07 -2.578,-0.73 -4.945,-1.91 -7.102,-3.559 -2.148,-1.652 -3.871,-3.8 -5.16,-6.453 -1.293,-2.656 -1.937,-5.918 -1.937,-9.789 V 38.9492 H 592.898 V 154.711 h 28.407" /><path
         id="path98"
         style="fill:#27963c;fill-opacity:1;fill-rule:nonzero;stroke:none"
         d="m 690.797,80.4688 c 0.289,-5.0196 0.965,-9.3204 2.047,-12.9102 1.074,-3.5781 2.683,-6.3789 4.836,-8.3867 2.156,-2.0117 5.019,-3 8.609,-3 6.024,0 10.18,3.1484 12.481,9.457 2.289,6.3125 3.441,16.7109 3.441,31.2031 0,14.477 -1.152,24.879 -3.441,31.199 -2.301,6.309 -6.457,9.457 -12.481,9.457 -3.59,0 -6.453,-1 -8.609,-3 -2.153,-2.019 -3.762,-4.816 -4.836,-8.398 -1.082,-3.59 -1.758,-7.891 -2.047,-12.91 -0.289,-5.02 -0.43,-10.469 -0.43,-16.348 0,-5.8906 0.141,-11.3437 0.43,-16.3632 z m -27.754,42.6132 c 1.57,7.598 4.152,13.938 7.742,19.039 3.586,5.09 8.281,8.957 14.094,11.609 5.809,2.661 12.941,3.989 21.41,3.989 8.891,0.14 16.277,-1.047 22.156,-3.547 5.887,-2.524 10.547,-6.344 13.993,-11.512 3.441,-5.172 5.878,-11.551 7.312,-19.148 1.434,-7.614 2.152,-16.492 2.152,-26.68 0,-9.9023 -0.789,-18.6523 -2.367,-26.25 -1.582,-7.6132 -4.164,-13.9609 -7.742,-19.0429 -3.59,-5.0977 -8.285,-8.8594 -14.098,-11.3008 -5.808,-2.4297 -12.945,-3.6485 -21.406,-3.6485 -8.894,-0.1484 -16.285,0.961 -22.164,3.3321 -5.883,2.3672 -10.539,6.0898 -13.984,11.1875 -3.442,5.082 -5.883,11.4687 -7.321,19.1523 -1.433,7.6602 -2.144,16.5196 -2.144,26.5703 0,9.887 0.785,18.637 2.367,26.25" /><path
         id="path100"
         style="fill:#27963c;fill-opacity:1;fill-rule:nonzero;stroke:none"
         d="m 759.215,134.488 v 20.223 h 15.062 v 13.129 c 0,5.148 0.719,9.531 2.153,13.121 1.429,3.578 3.476,6.461 6.129,8.598 2.656,2.152 5.918,3.703 9.789,4.632 3.879,0.93 8.179,1.399 12.91,1.399 5.308,0 10.617,-0.219 15.926,-0.649 v -21.082 c -0.719,0.141 -1.719,0.219 -3.016,0.219 h -2.797 c -4.16,0 -7.101,-0.726 -8.816,-2.16 -1.727,-1.438 -2.586,-3.797 -2.586,-7.098 v -10.109 h 17.215 V 134.488 H 803.969 V 38.9492 h -29.692 v 95.5388 h -15.062" /><path
         id="path102"
         style="fill:#27963c;fill-opacity:1;fill-rule:nonzero;stroke:none"
         d="m 886.379,121.68 c -0.434,3.371 -1.188,6.242 -2.262,8.609 -1.074,2.359 -2.586,4.16 -4.515,5.379 -1.942,1.211 -4.414,1.82 -7.43,1.82 -3.012,0 -5.484,-0.679 -7.422,-2.039 -1.934,-1.359 -3.477,-3.16 -4.621,-5.379 -1.152,-2.218 -1.977,-4.699 -2.477,-7.422 -0.504,-2.718 -0.754,-5.457 -0.754,-8.179 v -4.52 h 30.336 c -0.144,4.449 -0.425,8.352 -0.855,11.731 z M 856.898,83.0586 c 0,-3.4492 0.25,-6.7773 0.754,-10.0078 0.5,-3.2227 1.325,-6.0899 2.477,-8.6016 1.144,-2.5078 2.648,-4.5195 4.516,-6.0273 1.863,-1.5039 4.16,-2.25 6.882,-2.25 5.02,0 8.676,1.7773 10.977,5.3672 2.293,3.582 3.875,9.0429 4.73,16.3515 h 26.684 c -0.578,-13.4804 -4.16,-23.7422 -10.758,-30.7695 -6.601,-7.0313 -17,-10.5313 -31.203,-10.5313 -10.758,0 -19.148,1.7813 -25.172,5.3711 -6.023,3.5782 -10.472,8.3204 -13.34,14.211 -2.871,5.8672 -4.629,12.4765 -5.269,19.789 -0.649,7.3086 -0.969,14.6289 -0.969,21.9375 0,7.7496 0.535,15.2106 1.609,22.3826 1.082,7.168 3.231,13.547 6.457,19.149 3.227,5.59 7.856,10.039 13.875,13.34 6.028,3.3 14.059,4.949 24.106,4.949 8.601,0 15.668,-1.399 21.187,-4.199 5.524,-2.79 9.868,-6.739 13.02,-11.829 3.152,-5.089 5.309,-11.269 6.457,-18.5 1.145,-7.25 1.723,-15.32 1.723,-24.2105 v -6.6719 h -58.743 v -9.25" /><path
         id="path104"
         style="fill:#27963c;fill-opacity:1;fill-rule:nonzero;stroke:none"
         d="m 952.859,72.9414 c 0,-5.0195 1.325,-9.0703 3.981,-12.1601 2.652,-3.0821 6.488,-4.6094 11.512,-4.6094 4.586,0 8.246,1.1367 10.972,3.4297 2.723,2.2968 4.09,5.7382 4.09,10.3281 0,3.7305 -1.074,6.5703 -3.226,8.5 -2.157,1.9297 -4.665,3.4805 -7.532,4.6289 l -20.875,7.5312 c -8.172,2.8711 -14.343,6.9102 -18.5,12.1602 -4.164,5.23 -6.238,11.941 -6.238,20.109 0,4.731 0.785,9.211 2.359,13.45 1.578,4.23 4.094,7.921 7.536,11.082 3.445,3.148 7.851,5.668 13.234,7.539 5.375,1.851 11.863,2.789 19.473,2.789 13.48,0 23.453,-2.867 29.906,-8.61 6.459,-5.738 9.679,-13.839 9.679,-24.308 v -4.742 h -26.675 c 0,6.031 -0.973,10.441 -2.907,13.23 -1.937,2.813 -5.347,4.199 -10.218,4.199 -3.739,0 -6.992,-1.039 -9.789,-3.109 -2.801,-2.09 -4.203,-5.207 -4.203,-9.367 0,-2.871 0.902,-5.453 2.691,-7.742 1.793,-2.301 5.199,-4.239 10.223,-5.809 l 17.859,-6.031 c 9.32,-3.149 15.919,-7.2816 19.799,-12.3714 3.87,-5.0898 5.81,-12.0078 5.81,-20.7578 0,-6.1719 -1.08,-11.5195 -3.23,-16.0313 -2.15,-4.5195 -5.13,-8.289 -8.934,-11.3007 -3.801,-3.0079 -8.316,-5.1602 -13.551,-6.4493 -5.242,-1.289 -11.011,-1.9297 -17.328,-1.9297 -8.316,0 -15.238,0.7891 -20.757,2.3594 -5.524,1.5703 -9.899,3.9414 -13.125,7.1016 -3.231,3.1484 -5.493,6.9883 -6.782,11.5078 -1.289,4.5234 -1.929,9.5703 -1.929,15.1719 v 4.0898 h 26.675 v -3.8789" /><path
         id="path106"
         style="fill:#27963c;fill-opacity:1;fill-rule:nonzero;stroke:none"
         d="m 1048.39,72.9414 c 0,-5.0195 1.32,-9.0703 3.98,-12.1601 2.65,-3.0821 6.49,-4.6094 11.51,-4.6094 4.59,0 8.24,1.1367 10.97,3.4297 2.72,2.2968 4.09,5.7382 4.09,10.3281 0,3.7305 -1.07,6.5703 -3.23,8.5 -2.15,1.9297 -4.66,3.4805 -7.53,4.6289 l -20.87,7.5312 c -8.17,2.8711 -14.35,6.9102 -18.5,12.1602 -4.17,5.23 -6.24,11.941 -6.24,20.109 0,4.731 0.78,9.211 2.36,13.45 1.58,4.23 4.09,7.921 7.54,11.082 3.44,3.148 7.85,5.668 13.23,7.539 5.37,1.851 11.86,2.789 19.47,2.789 13.48,0 23.45,-2.867 29.91,-8.61 6.45,-5.738 9.68,-13.839 9.68,-24.308 v -4.742 h -26.68 c 0,6.031 -0.97,10.441 -2.9,13.23 -1.94,2.813 -5.35,4.199 -10.22,4.199 -3.74,0 -7,-1.039 -9.79,-3.109 -2.8,-2.09 -4.2,-5.207 -4.2,-9.367 0,-2.871 0.9,-5.453 2.69,-7.742 1.79,-2.301 5.2,-4.239 10.22,-5.809 l 17.86,-6.031 c 9.32,-3.149 15.92,-7.2816 19.79,-12.3714 3.88,-5.0898 5.81,-12.0078 5.81,-20.7578 0,-6.1719 -1.08,-11.5195 -3.22,-16.0313 -2.16,-4.5195 -5.14,-8.289 -8.93,-11.3007 -3.81,-3.0079 -8.32,-5.1602 -13.56,-6.4493 -5.24,-1.289 -11.01,-1.9297 -17.32,-1.9297 -8.32,0 -15.24,0.7891 -20.77,2.3594 -5.52,1.5703 -9.89,3.9414 -13.12,7.1016 -3.23,3.1484 -5.49,6.9883 -6.78,11.5078 -1.29,4.5234 -1.93,9.5703 -1.93,15.1719 v 4.0898 h 26.68 v -3.8789" /><path
         id="path108"
         style="fill:#27963c;fill-opacity:1;fill-rule:nonzero;stroke:none"
         d="M 1152.95,154.711 V 38.9492 h -29.69 V 154.711 Z m 0,39.59 V 168.91 h -29.69 v 25.391 h 29.69" /><path
         id="path110"
         style="fill:#27963c;fill-opacity:1;fill-rule:nonzero;stroke:none"
         d="m 1200.07,80.4688 c 0.29,-5.0196 0.97,-9.3204 2.04,-12.9102 1.08,-3.5781 2.69,-6.3789 4.84,-8.3867 2.16,-2.0117 5.02,-3 8.61,-3 6.03,0 10.18,3.1484 12.48,9.457 2.29,6.3125 3.44,16.7109 3.44,31.2031 0,14.477 -1.15,24.879 -3.44,31.199 -2.3,6.309 -6.45,9.457 -12.48,9.457 -3.59,0 -6.45,-1 -8.61,-3 -2.15,-2.019 -3.76,-4.816 -4.84,-8.398 -1.07,-3.59 -1.75,-7.891 -2.04,-12.91 -0.29,-5.02 -0.43,-10.469 -0.43,-16.348 0,-5.8906 0.14,-11.3437 0.43,-16.3632 z m -27.76,42.6132 c 1.58,7.598 4.16,13.938 7.75,19.039 3.58,5.09 8.28,8.957 14.09,11.609 5.81,2.661 12.94,3.989 21.41,3.989 8.89,0.14 16.28,-1.047 22.16,-3.547 5.88,-2.524 10.55,-6.344 13.99,-11.512 3.44,-5.172 5.88,-11.551 7.31,-19.148 1.43,-7.614 2.16,-16.492 2.16,-26.68 0,-9.9023 -0.79,-18.6523 -2.37,-26.25 -1.58,-7.6132 -4.17,-13.9609 -7.75,-19.0429 -3.58,-5.0977 -8.28,-8.8594 -14.09,-11.3008 -5.81,-2.4297 -12.95,-3.6485 -21.41,-3.6485 -8.89,-0.1484 -16.28,0.961 -22.16,3.3321 -5.89,2.3672 -10.54,6.0898 -13.99,11.1875 -3.44,5.082 -5.88,11.4687 -7.32,19.1523 -1.43,7.6602 -2.14,16.5196 -2.14,26.5703 0,9.887 0.78,18.637 2.36,26.25" /><path
         id="path112"
         style="fill:#27963c;fill-opacity:1;fill-rule:nonzero;stroke:none"
         d="M 1305.5,154.711 V 141.16 h 0.43 c 3.15,5.731 7.24,9.918 12.26,12.57 5.02,2.661 10.76,3.989 17.22,3.989 9.46,0 16.74,-2.578 21.83,-7.75 5.09,-5.16 7.64,-13.547 7.64,-25.168 V 38.9492 h -29.69 V 118.77 c 0,6.031 -1.01,10.23 -3.01,12.589 -2.01,2.36 -5.24,3.563 -9.68,3.563 -10.48,0 -15.71,-6.391 -15.71,-19.152 V 38.9492 h -29.7 V 154.711 h 28.41" /><path
         id="path114"
         style="fill:#27963c;fill-opacity:1;fill-rule:nonzero;stroke:none"
         d="M 1413.08,154.711 V 141.16 h 0.43 c 3.16,5.731 7.24,9.918 12.27,12.57 5.01,2.661 10.75,3.989 17.21,3.989 9.47,0 16.74,-2.578 21.83,-7.75 5.1,-5.16 7.65,-13.547 7.65,-25.168 V 38.9492 h -29.7 V 118.77 c 0,6.031 -1,10.23 -3.01,12.589 -2.01,2.36 -5.24,3.563 -9.68,3.563 -10.48,0 -15.71,-6.391 -15.71,-19.152 V 38.9492 h -29.69 V 154.711 h 28.4" /><path
         id="path116"
         style="fill:#27963c;fill-opacity:1;fill-rule:nonzero;stroke:none"
         d="m 1547.13,121.68 c -0.43,3.371 -1.19,6.242 -2.26,8.609 -1.08,2.359 -2.58,4.16 -4.52,5.379 -1.94,1.211 -4.41,1.82 -7.43,1.82 -3.01,0 -5.48,-0.679 -7.42,-2.039 -1.93,-1.359 -3.47,-3.16 -4.62,-5.379 -1.15,-2.218 -1.97,-4.699 -2.48,-7.422 -0.5,-2.718 -0.75,-5.457 -0.75,-8.179 v -4.52 h 30.34 c -0.15,4.449 -0.43,8.352 -0.86,11.731 z m -29.48,-38.6214 c 0,-3.4492 0.25,-6.7773 0.75,-10.0078 0.51,-3.2227 1.33,-6.0899 2.48,-8.6016 1.15,-2.5078 2.65,-4.5195 4.52,-6.0273 1.86,-1.5039 4.16,-2.25 6.88,-2.25 5.02,0 8.68,1.7773 10.98,5.3672 2.29,3.582 3.87,9.0429 4.73,16.3515 h 26.68 c -0.58,-13.4804 -4.16,-23.7422 -10.76,-30.7695 -6.6,-7.0313 -17,-10.5313 -31.2,-10.5313 -10.76,0 -19.15,1.7813 -25.17,5.3711 -6.03,3.5782 -10.47,8.3204 -13.34,14.211 -2.87,5.8672 -4.63,12.4765 -5.27,19.789 -0.65,7.3086 -0.97,14.6289 -0.97,21.9375 0,7.7496 0.54,15.2106 1.61,22.3826 1.08,7.168 3.23,13.547 6.46,19.149 3.22,5.59 7.85,10.039 13.87,13.34 6.03,3.3 14.06,4.949 24.1,4.949 8.61,0 15.67,-1.399 21.2,-4.199 5.52,-2.79 9.86,-6.739 13.01,-11.829 3.16,-5.089 5.31,-11.269 6.46,-18.5 1.15,-7.25 1.72,-15.32 1.72,-24.2105 v -6.6719 h -58.74 v -9.25" /><path
         id="path118"
         style="fill:#27963c;fill-opacity:1;fill-rule:nonzero;stroke:none"
         d="M 1622.65,192.57 V 38.9492 h -29.7 V 192.57 h 29.7" /><path
         id="path120"
         style="fill:#27963c;fill-opacity:1;fill-rule:nonzero;stroke:none"
         d="m 1665.25,72.9414 c 0,-5.0195 1.32,-9.0703 3.98,-12.1601 2.65,-3.0821 6.49,-4.6094 11.51,-4.6094 4.59,0 8.25,1.1367 10.98,3.4297 2.72,2.2968 4.08,5.7382 4.08,10.3281 0,3.7305 -1.07,6.5703 -3.22,8.5 -2.15,1.9297 -4.67,3.4805 -7.53,4.6289 l -20.87,7.5312 c -8.18,2.8711 -14.35,6.9102 -18.51,12.1602 -4.16,5.23 -6.24,11.941 -6.24,20.109 0,4.731 0.79,9.211 2.37,13.45 1.57,4.23 4.09,7.921 7.53,11.082 3.44,3.148 7.86,5.668 13.23,7.539 5.38,1.851 11.87,2.789 19.47,2.789 13.49,0 23.46,-2.867 29.91,-8.61 6.46,-5.738 9.68,-13.839 9.68,-24.308 v -4.742 h -26.68 c 0,6.031 -0.97,10.441 -2.9,13.23 -1.93,2.813 -5.34,4.199 -10.22,4.199 -3.73,0 -7,-1.039 -9.79,-3.109 -2.8,-2.09 -4.2,-5.207 -4.2,-9.367 0,-2.871 0.9,-5.453 2.7,-7.742 1.78,-2.301 5.19,-4.239 10.21,-5.809 l 17.86,-6.031 c 9.33,-3.149 15.92,-7.2816 19.8,-12.3714 3.87,-5.0898 5.81,-12.0078 5.81,-20.7578 0,-6.1719 -1.08,-11.5195 -3.23,-16.0313 -2.15,-4.5195 -5.13,-8.289 -8.93,-11.3007 -3.8,-3.0079 -8.32,-5.1602 -13.55,-6.4493 -5.24,-1.289 -11.02,-1.9297 -17.33,-1.9297 -8.32,0 -15.24,0.7891 -20.76,2.3594 -5.53,1.5703 -9.89,3.9414 -13.12,7.1016 -3.23,3.1484 -5.49,6.9883 -6.78,11.5078 -1.29,4.5234 -1.94,9.5703 -1.94,15.1719 v 4.0898 h 26.68 v -3.8789" /><path
         id="path122"
         style="fill:#27963c;fill-opacity:1;fill-rule:nonzero;stroke:none"
         d="m 1820.49,68.3086 c 1.93,-6.3672 6.13,-9.5703 12.59,-9.5703 6.59,0 10.87,3.2031 12.8,9.5703 1.93,6.3906 2.9,15.8906 2.9,28.5234 0,12.617 -0.97,22.117 -2.9,28.508 -1.93,6.379 -6.21,9.582 -12.8,9.582 -6.46,0 -10.66,-3.203 -12.59,-9.582 -1.94,-6.391 -2.9,-15.891 -2.9,-28.508 0,-12.6328 0.96,-22.1328 2.9,-28.5234 z m 29.15,-17.0977 c -3.3,-5.4492 -6.99,-9.25 -11.08,-11.4023 -4.09,-2.1484 -9.15,-3.2188 -15.17,-3.2188 -12.19,0 -21.15,4.6485 -26.9,13.9805 -5.73,9.3203 -8.6,24.75 -8.6,46.2617 0,21.508 2.87,37.039 8.6,46.578 5.75,9.539 14.71,14.309 26.9,14.309 5.59,0 10.36,-1.149 14.32,-3.438 3.93,-2.301 7.49,-5.742 10.64,-10.332 h 0.43 v 48.621 h 29.7 V 38.9492 h -28.4 v 12.2617 h -0.44" /><path
         id="path124"
         style="fill:#27963c;fill-opacity:1;fill-rule:nonzero;stroke:none"
         d="m 1953.13,121.68 c -0.42,3.371 -1.18,6.242 -2.25,8.609 -1.09,2.359 -2.59,4.16 -4.52,5.379 -1.94,1.211 -4.42,1.82 -7.42,1.82 -3.02,0 -5.49,-0.679 -7.43,-2.039 -1.94,-1.359 -3.48,-3.16 -4.63,-5.379 -1.15,-2.218 -1.97,-4.699 -2.48,-7.422 -0.49,-2.718 -0.75,-5.457 -0.75,-8.179 v -4.52 h 30.34 c -0.14,4.449 -0.43,8.352 -0.86,11.731 z m -29.48,-38.6214 c 0,-3.4492 0.26,-6.7773 0.75,-10.0078 0.51,-3.2227 1.33,-6.0899 2.48,-8.6016 1.15,-2.5078 2.65,-4.5195 4.53,-6.0273 1.85,-1.5039 4.15,-2.25 6.88,-2.25 5.02,0 8.67,1.7773 10.97,5.3672 2.29,3.582 3.87,9.0429 4.73,16.3515 h 26.68 c -0.57,-13.4804 -4.16,-23.7422 -10.76,-30.7695 -6.59,-7.0313 -16.99,-10.5313 -31.19,-10.5313 -10.76,0 -19.15,1.7813 -25.18,5.3711 -6.02,3.5782 -10.47,8.3204 -13.33,14.211 -2.88,5.8672 -4.63,12.4765 -5.28,19.789 -0.64,7.3086 -0.97,14.6289 -0.97,21.9375 0,7.7496 0.54,15.2106 1.62,22.3826 1.07,7.168 3.23,13.547 6.45,19.149 3.23,5.59 7.85,10.039 13.88,13.34 6.02,3.3 14.06,4.949 24.1,4.949 8.6,0 15.66,-1.399 21.19,-4.199 5.52,-2.79 9.86,-6.739 13.02,-11.829 3.15,-5.089 5.3,-11.269 6.45,-18.5 1.15,-7.25 1.72,-15.32 1.72,-24.2105 v -6.6719 h -58.74 v -9.25" /><path
         id="path126"
         style="fill:#27963c;fill-opacity:1;fill-rule:nonzero;stroke:none"
         d="M 2080.29,192.57 V 38.9492 h -29.68 V 192.57 h 29.68" /><path
         id="path128"
         style="fill:#27963c;fill-opacity:1;fill-rule:nonzero;stroke:none"
         d="m 2132.26,148.789 c -0.8,-4.809 -2.26,-8.961 -4.41,-12.48 -2.16,-3.508 -5.06,-6.379 -8.72,-8.598 -3.65,-2.231 -8.36,-3.633 -14.09,-4.199 v 15.058 c 3.73,0.711 6.52,2.719 8.39,6.02 1.86,3.301 2.8,6.961 2.8,10.98 v 3.442 h -11.19 v 33.558 h 28.4 v -27.968 c 0,-5.743 -0.39,-11 -1.18,-15.813" /><path
         id="path130"
         style="fill:#27963c;fill-opacity:1;fill-rule:nonzero;stroke:none"
         d="m 2243.82,167.191 h -54.87 v -36.152 h 51.64 v -25.391 h -51.64 V 64.3398 h 57.02 V 38.9492 h -88 V 192.57 h 85.85 v -25.379" /><path
         id="path132"
         style="fill:#27963c;fill-opacity:1;fill-rule:nonzero;stroke:none"
         d="M 2288.99,154.711 V 141.16 h 0.43 c 3.16,5.731 7.24,9.918 12.27,12.57 5.02,2.661 10.75,3.989 17.21,3.989 9.47,0 16.74,-2.578 21.84,-7.75 5.09,-5.16 7.64,-13.547 7.64,-25.168 V 38.9492 h -29.7 V 118.77 c 0,6.031 -1,10.23 -3.01,12.589 -2.01,2.36 -5.23,3.563 -9.68,3.563 -10.47,0 -15.71,-6.391 -15.71,-19.152 V 38.9492 H 2260.6 V 154.711 h 28.39" /><path
         id="path134"
         style="fill:#27963c;fill-opacity:1;fill-rule:nonzero;stroke:none"
         d="m 2396.04,81.7695 c 0.35,-3.5898 1.07,-6.789 2.14,-9.5781 1.08,-2.793 2.58,-5.0195 4.53,-6.6719 1.93,-1.6484 4.48,-2.4687 7.63,-2.4687 3.16,0 5.77,0.8203 7.85,2.4687 2.08,1.6524 3.73,3.9102 4.95,6.7813 1.22,2.8711 2.08,6.3476 2.58,10.4375 0.51,4.082 0.75,8.5625 0.75,13.4414 0,14.0583 -1.11,24.0313 -3.33,29.9103 -2.22,5.879 -6.27,8.832 -12.15,8.832 -3.3,0 -5.96,-0.731 -7.96,-2.16 -2.01,-1.442 -3.6,-3.762 -4.74,-6.992 -1.15,-3.231 -1.9,-7.532 -2.25,-12.918 -0.37,-5.383 -0.54,-11.942 -0.54,-19.684 0,-4.0196 0.17,-7.8164 0.54,-11.3985 z m 58.84,-37.0078 c 0,-14.9219 -3.7,-26.1015 -11.08,-33.5703 C 2436.41,3.73047 2424.03,0 2406.68,0 c -12.62,0 -22.34,2.69141 -29.15,8.07031 -6.82,5.37889 -10.23,13.01949 -10.23,22.91799 h 28.41 c 0,-3.7266 1.51,-6.668 4.51,-8.8281 1.44,-0.9883 2.98,-1.7891 4.63,-2.3594 1.65,-0.5703 3.41,-0.8594 5.28,-0.8594 6.02,0 10.25,1.9297 12.69,5.8086 2.43,3.8711 3.65,8.6797 3.65,14.4102 v 15.2812 h -0.43 c -3,-4.3008 -6.69,-7.75 -11.07,-10.332 -4.38,-2.5781 -8.93,-3.8711 -13.66,-3.8711 -11.77,0 -20.63,4.4805 -26.57,13.4414 -5.96,8.9687 -8.94,24 -8.94,45.082 0,6.7383 0.39,13.6293 1.18,20.6563 0.79,7.031 2.44,13.383 4.95,19.043 2.51,5.66 6.17,10.289 10.98,13.879 4.8,3.582 11.22,5.379 19.26,5.379 4.16,0 8.46,-1.149 12.91,-3.438 4.44,-2.301 8.09,-6.453 10.96,-12.48 h 0.43 v 12.91 h 28.41 V 44.7617" /><path
         id="path136"
         style="fill:#27963c;fill-opacity:1;fill-rule:nonzero;stroke:none"
         d="m 2504.15,154.711 v -15.5 h 0.43 c 3.01,5.598 6.67,10.078 10.98,13.449 4.29,3.371 9.53,5.059 15.7,5.059 0.86,0 1.76,-0.039 2.69,-0.11 0.93,-0.078 1.83,-0.179 2.69,-0.32 v -28.398 c -1.58,0.14 -3.12,0.238 -4.63,0.32 -1.5,0.07 -3.05,0.109 -4.63,0.109 -2.58,0 -5.15,-0.359 -7.74,-1.07 -2.58,-0.73 -4.95,-1.91 -7.1,-3.559 -2.15,-1.652 -3.87,-3.8 -5.17,-6.453 -1.29,-2.656 -1.93,-5.918 -1.93,-9.789 V 38.9492 h -29.69 V 154.711 h 28.4" /><path
         id="path138"
         style="fill:#27963c;fill-opacity:1;fill-rule:nonzero;stroke:none"
         d="m 2594.95,93.0586 c -2.29,-0.9297 -4.37,-1.6094 -6.24,-2.0391 -6.02,-1.289 -10.33,-3.4492 -12.91,-6.4609 -2.59,-3.0078 -3.88,-7.0977 -3.88,-12.2578 0,-4.4492 0.86,-8.25 2.59,-11.4102 1.72,-3.1523 4.59,-4.7187 8.61,-4.7187 2,0 4.09,0.3164 6.24,0.957 2.14,0.6524 4.12,1.6797 5.91,3.1211 1.79,1.4297 3.27,3.3008 4.41,5.5898 1.15,2.3008 1.73,5.0196 1.73,8.1797 V 96.832 c -2.02,-1.582 -4.16,-2.832 -6.46,-3.7734 z m -47.77,28.9534 c 0,6.726 1.08,12.367 3.23,16.879 2.15,4.519 5.06,8.168 8.71,10.98 3.66,2.789 7.97,4.801 12.91,6.02 4.95,1.211 10.23,1.828 15.82,1.828 8.89,0 16.07,-0.86 21.52,-2.578 5.44,-1.731 9.67,-4.172 12.69,-7.313 3.01,-3.168 5.06,-6.93 6.13,-11.297 1.08,-4.383 1.61,-9.152 1.61,-14.312 V 61.3203 c 0,-5.4492 0.26,-9.6797 0.76,-12.6914 0.49,-3.0078 1.47,-6.2305 2.91,-9.6797 h -28.41 c -1.01,1.8594 -1.76,3.8399 -2.26,5.9219 -0.51,2.0781 -0.96,4.1172 -1.39,6.1289 h -0.43 c -3.45,-6.0312 -7.43,-9.9297 -11.95,-11.7305 -4.52,-1.789 -10.37,-2.6797 -17.54,-2.6797 -5.16,0 -9.54,0.8907 -13.12,2.6797 -3.58,1.8008 -6.46,4.2696 -8.6,7.4219 -2.15,3.1602 -3.73,6.707 -4.74,10.6602 -1.01,3.9375 -1.5,7.8476 -1.5,11.7265 0,5.4414 0.56,10.1407 1.71,14.0899 1.16,3.9414 2.91,7.3125 5.28,10.1015 2.36,2.8086 5.38,5.1289 9.03,7.0005 3.66,1.859 8.08,3.511 13.23,4.949 l 16.79,4.519 c 4.44,1.141 7.53,2.723 9.25,4.731 1.73,2.011 2.59,4.949 2.59,8.82 0,4.449 -1.05,7.922 -3.13,10.43 -2.08,2.511 -5.62,3.769 -10.64,3.769 -4.6,0 -8.04,-1.359 -10.34,-4.09 -2.29,-2.718 -3.43,-6.378 -3.43,-10.968 v -3.231 h -26.69 v 2.813" /><path
         id="path140"
         style="fill:#27963c;fill-opacity:1;fill-rule:nonzero;stroke:none"
         d="M 2681.65,154.711 V 38.9492 h -29.69 V 154.711 Z m 0,39.59 V 168.91 h -29.69 v 25.391 h 29.69" /><path
         id="path142"
         style="fill:#27963c;fill-opacity:1;fill-rule:nonzero;stroke:none"
         d="m 2724.26,72.9414 c 0,-5.0195 1.32,-9.0703 3.97,-12.1601 2.66,-3.0821 6.5,-4.6094 11.52,-4.6094 4.59,0 8.25,1.1367 10.97,3.4297 2.73,2.2968 4.08,5.7382 4.08,10.3281 0,3.7305 -1.07,6.5703 -3.22,8.5 -2.15,1.9297 -4.67,3.4805 -7.53,4.6289 l -20.87,7.5312 c -8.18,2.8711 -14.34,6.9102 -18.5,12.1602 -4.16,5.23 -6.24,11.941 -6.24,20.109 0,4.731 0.78,9.211 2.36,13.45 1.58,4.23 4.09,7.921 7.53,11.082 3.45,3.148 7.86,5.668 13.23,7.539 5.38,1.851 11.88,2.789 19.48,2.789 13.48,0 23.45,-2.867 29.91,-8.61 6.45,-5.738 9.68,-13.839 9.68,-24.308 v -4.742 h -26.68 c 0,6.031 -0.97,10.441 -2.91,13.23 -1.93,2.813 -5.34,4.199 -10.22,4.199 -3.73,0 -6.99,-1.039 -9.78,-3.109 -2.81,-2.09 -4.2,-5.207 -4.2,-9.367 0,-2.871 0.89,-5.453 2.69,-7.742 1.79,-2.301 5.2,-4.239 10.22,-5.809 l 17.86,-6.031 c 9.32,-3.149 15.92,-7.2816 19.79,-12.3714 3.87,-5.0898 5.81,-12.0078 5.81,-20.7578 0,-6.1719 -1.07,-11.5195 -3.23,-16.0313 -2.15,-4.5195 -5.13,-8.289 -8.93,-11.3007 -3.79,-3.0079 -8.32,-5.1602 -13.55,-6.4493 -5.23,-1.289 -11.02,-1.9297 -17.32,-1.9297 -8.32,0 -15.25,0.7891 -20.77,2.3594 -5.52,1.5703 -9.89,3.9414 -13.12,7.1016 -3.22,3.1484 -5.49,6.9883 -6.78,11.5078 -1.29,4.5234 -1.93,9.5703 -1.93,15.1719 v 4.0898 h 26.68 v -3.8789" /><path
         id="path144"
         style="fill:#27963c;fill-opacity:1;fill-rule:nonzero;stroke:none"
         d="m 29.6914,689.699 17,-113.597 h 0.4258 L 65.1914,689.699 H 94.8828 L 112.961,576.102 h 0.43 l 16.996,113.597 h 29.691 L 132.109,536.078 H 97.4648 L 80.2539,647.531 H 79.8242 L 62.6133,536.078 H 27.9688 L 0,689.699 h 29.6914" /><path
         id="path146"
         style="fill:#27963c;fill-opacity:1;fill-rule:nonzero;stroke:none"
         d="m 222.695,618.809 c -0.429,3.371 -1.187,6.242 -2.261,8.613 -1.075,2.359 -2.582,4.16 -4.516,5.379 -1.938,1.211 -4.414,1.82 -7.426,1.82 -3.012,0 -5.484,-0.68 -7.422,-2.043 -1.933,-1.367 -3.476,-3.156 -4.625,-5.379 -1.152,-2.23 -1.972,-4.699 -2.476,-7.418 -0.5,-2.73 -0.75,-5.461 -0.75,-8.191 v -4.508 h 30.336 c -0.149,4.449 -0.43,8.348 -0.86,11.727 z m -29.476,-38.618 c 0,-3.453 0.25,-6.781 0.75,-10.011 0.504,-3.219 1.324,-6.09 2.476,-8.598 1.149,-2.512 2.653,-4.531 4.516,-6.031 1.867,-1.5 4.16,-2.262 6.887,-2.262 5.019,0 8.675,1.789 10.976,5.383 2.289,3.578 3.871,9.039 4.731,16.348 h 26.679 c -0.578,-13.481 -4.16,-23.739 -10.757,-30.77 -6.602,-7.031 -16.997,-10.539 -31.2,-10.539 -10.757,0 -19.152,1.789 -25.172,5.379 -6.027,3.582 -10.472,8.32 -13.339,14.199 -2.871,5.883 -4.629,12.481 -5.274,19.801 -0.644,7.308 -0.969,14.629 -0.969,21.941 0,7.75 0.54,15.207 1.614,22.379 1.078,7.172 3.226,13.551 6.457,19.149 3.226,5.589 7.855,10.031 13.875,13.339 6.023,3.301 14.058,4.954 24.101,4.954 8.606,0 15.668,-1.403 21.192,-4.204 5.523,-2.796 9.863,-6.738 13.015,-11.828 3.157,-5.101 5.309,-11.269 6.457,-18.5 1.149,-7.25 1.723,-15.32 1.723,-24.211 v -6.668 h -58.738 v -9.25" /><path
         id="path148"
         style="fill:#27963c;fill-opacity:1;fill-rule:nonzero;stroke:none"
         d="m 289.18,570.07 c 0,-5.019 1.324,-9.07 3.98,-12.16 2.653,-3.082 6.488,-4.621 11.508,-4.621 4.59,0 8.246,1.152 10.977,3.441 2.718,2.301 4.085,5.731 4.085,10.329 0,3.722 -1.074,6.57 -3.226,8.5 -2.152,1.929 -4.664,3.48 -7.527,4.632 l -20.875,7.528 c -8.176,2.871 -14.348,6.91 -18.5,12.16 -4.168,5.23 -6.243,11.941 -6.243,20.109 0,4.731 0.786,9.211 2.364,13.453 1.578,4.231 4.09,7.918 7.535,11.071 3.441,3.16 7.851,5.679 13.23,7.539 5.375,1.859 11.867,2.801 19.473,2.801 13.48,0 23.453,-2.872 29.906,-8.614 6.457,-5.738 9.684,-13.84 9.684,-24.308 v -4.739 h -26.68 c 0,6.028 -0.973,10.438 -2.902,13.231 -1.942,2.808 -5.348,4.199 -10.223,4.199 -3.734,0 -6.992,-1.043 -9.789,-3.109 -2.797,-2.09 -4.199,-5.211 -4.199,-9.371 0,-2.871 0.898,-5.45 2.691,-7.743 1.789,-2.296 5.199,-4.238 10.219,-5.808 l 17.859,-6.031 c 9.325,-3.149 15.926,-7.278 19.797,-12.368 3.871,-5.089 5.813,-12.011 5.813,-20.761 0,-6.168 -1.082,-11.52 -3.231,-16.032 -2.152,-4.519 -5.133,-8.289 -8.929,-11.296 -3.805,-3.012 -8.321,-5.161 -13.555,-6.454 -5.238,-1.289 -11.012,-1.937 -17.324,-1.937 -8.321,0 -15.239,0.801 -20.762,2.367 -5.523,1.57 -9.898,3.942 -13.125,7.102 -3.227,3.148 -5.488,6.992 -6.777,11.511 -1.289,4.52 -1.934,9.571 -1.934,15.168 v 4.09 h 26.68 v -3.879" /><path
         id="path150"
         style="fill:#27963c;fill-opacity:1;fill-rule:nonzero;stroke:none"
         d="M 399.121,684.969 V 651.84 h 17.211 V 631.609 H 399.121 V 569 c 0,-4.59 0.68,-7.852 2.047,-9.789 1.355,-1.941 4.191,-2.91 8.496,-2.91 1.149,0 2.293,0.039 3.441,0.109 1.149,0.07 2.223,0.18 3.227,0.32 v -20.652 c -3.301,0 -6.488,-0.109 -9.574,-0.316 -3.086,-0.223 -6.348,-0.332 -9.789,-0.332 -5.739,0 -10.438,0.402 -14.094,1.179 -3.656,0.801 -6.453,2.371 -8.387,4.743 -1.937,2.359 -3.265,5.488 -3.984,9.359 -0.719,3.871 -1.074,8.75 -1.074,14.629 v 66.269 h -15.067 v 20.231 h 15.067 v 33.129 h 29.691" /><path
         id="path152"
         style="fill:#27963c;fill-opacity:1;fill-rule:nonzero;stroke:none"
         d="m 535.316,593.961 -14.847,69.059 h -0.43 l -14.844,-69.059 z m 4.086,95.738 40.664,-153.621 h -32.269 l -7.106,32.492 h -40.878 l -7.098,-32.492 h -32.277 l 40.667,153.621 h 38.297" /><path
         id="path154"
         style="fill:#27963c;fill-opacity:1;fill-rule:nonzero;stroke:none"
         d="m 581.355,631.609 v 20.231 h 15.067 v 13.121 c 0,5.16 0.719,9.539 2.152,13.129 1.43,3.582 3.477,6.449 6.129,8.601 2.656,2.149 5.918,3.688 9.789,4.629 3.875,0.93 8.18,1.399 12.91,1.399 5.309,0 10.618,-0.219 15.922,-0.649 v -21.082 c -0.719,0.141 -1.719,0.211 -3.011,0.211 h -2.797 c -4.161,0 -7.102,-0.719 -8.821,-2.148 -1.722,-1.442 -2.582,-3.801 -2.582,-7.102 V 651.84 h 17.211 v -20.231 h -17.211 v -95.531 h -29.691 v 95.531 h -15.067" /><path
         id="path156"
         style="fill:#27963c;fill-opacity:1;fill-rule:nonzero;stroke:none"
         d="m 682.055,651.84 v -15.5 h 0.429 c 3.012,5.601 6.672,10.082 10.973,13.449 4.301,3.371 9.535,5.063 15.707,5.063 0.859,0 1.754,-0.043 2.691,-0.114 0.926,-0.078 1.829,-0.187 2.692,-0.316 V 626.02 c -1.582,0.14 -3.121,0.242 -4.629,0.32 -1.504,0.07 -3.047,0.109 -4.625,0.109 -2.582,0 -5.164,-0.359 -7.75,-1.078 -2.578,-0.723 -4.945,-1.902 -7.098,-3.551 -2.148,-1.648 -3.875,-3.8 -5.164,-6.461 -1.293,-2.648 -1.937,-5.91 -1.937,-9.781 v -69.5 H 653.652 V 651.84 h 28.403" /><path
         id="path158"
         style="fill:#27963c;fill-opacity:1;fill-rule:nonzero;stroke:none"
         d="M 756.063,651.84 V 536.078 H 726.371 V 651.84 Z m 0,39.59 v -25.391 h -29.692 v 25.391 h 29.692" /><path
         id="path160"
         style="fill:#27963c;fill-opacity:1;fill-rule:nonzero;stroke:none"
         d="m 832.125,618.488 c -0.363,2.711 -1.008,5.192 -1.937,7.422 -0.934,2.219 -2.258,4.02 -3.981,5.371 -1.727,1.367 -4.019,2.051 -6.887,2.051 -3.59,0 -6.527,-0.832 -8.824,-2.48 -2.293,-1.653 -4.016,-4.082 -5.16,-7.313 -1.152,-3.219 -1.938,-7.32 -2.367,-12.269 -0.43,-4.942 -0.645,-10.79 -0.645,-17.532 0,-7.168 0.215,-13.308 0.645,-18.398 0.429,-5.09 1.215,-9.281 2.367,-12.578 1.144,-3.301 2.762,-5.711 4.84,-7.211 2.082,-1.5 4.765,-2.262 8.07,-2.262 5.02,0 8.68,2.152 10.973,6.461 2.289,4.301 3.441,11.18 3.441,20.648 h 28.403 c 0,-15.199 -3.411,-26.777 -10.223,-34.75 -6.813,-7.957 -18.11,-11.937 -33.887,-11.937 -7.461,0 -13.949,0.898 -19.473,2.687 -5.523,1.801 -10.113,5.024 -13.769,9.692 -3.656,4.66 -6.422,10.898 -8.281,18.711 -1.871,7.82 -2.797,17.539 -2.797,29.16 0,11.898 1.14,21.769 3.441,29.578 2.289,7.82 5.52,14.063 9.684,18.723 4.152,4.66 9.105,7.929 14.844,9.789 5.738,1.859 12.05,2.801 18.933,2.801 13.77,0 24.133,-4.02 31.09,-12.051 6.957,-8.039 10.438,-18.942 10.438,-32.711 H 832.66 c 0,2.871 -0.18,5.672 -0.535,8.398" /><path
         id="path162"
         style="fill:#27963c;fill-opacity:1;fill-rule:nonzero;stroke:none"
         d="m 924.102,590.191 c -2.293,-0.929 -4.375,-1.613 -6.235,-2.043 -6.027,-1.289 -10.332,-3.449 -12.91,-6.457 -2.586,-3.011 -3.879,-7.101 -3.879,-12.261 0,-4.45 0.863,-8.25 2.582,-11.41 1.727,-3.149 4.594,-4.731 8.61,-4.731 2.007,0 4.085,0.332 6.242,0.973 2.148,0.648 4.121,1.679 5.918,3.117 1.793,1.43 3.258,3.301 4.41,5.59 1.144,2.301 1.719,5.019 1.719,8.179 v 22.813 c -2.008,-1.582 -4.164,-2.832 -6.457,-3.77 z m -47.762,28.938 c 0,6.742 1.07,12.383 3.226,16.891 2.153,4.519 5.051,8.171 8.715,10.98 3.657,2.789 7.957,4.801 12.91,6.02 4.946,1.21 10.219,1.832 15.813,1.832 8.891,0 16.062,-0.864 21.516,-2.582 5.449,-1.731 9.683,-4.168 12.695,-7.321 3.015,-3.16 5.055,-6.918 6.133,-11.289 1.074,-4.379 1.613,-9.148 1.613,-14.308 v -60.903 c 0,-5.449 0.25,-9.679 0.75,-12.687 0.504,-3.012 1.473,-6.242 2.906,-9.684 h -28.398 c -1.004,1.863 -1.762,3.844 -2.262,5.922 -0.504,2.078 -0.965,4.121 -1.398,6.129 h -0.43 c -3.445,-6.027 -7.426,-9.93 -11.941,-11.731 -4.52,-1.789 -10.368,-2.687 -17.54,-2.687 -5.16,0 -9.539,0.898 -13.125,2.687 -3.582,1.801 -6.453,4.27 -8.601,7.422 -2.152,3.16 -3.734,6.711 -4.738,10.66 -1.004,3.942 -1.504,7.848 -1.504,11.719 0,5.449 0.574,10.153 1.718,14.102 1.149,3.937 2.907,7.308 5.274,10.097 2.371,2.813 5.383,5.133 9.039,7 3.656,1.864 8.066,3.512 13.23,4.954 l 16.786,4.519 c 4.441,1.141 7.527,2.719 9.253,4.719 1.715,2.019 2.579,4.961 2.579,8.832 0,4.449 -1.043,7.918 -3.121,10.43 -2.083,2.507 -5.629,3.769 -10.653,3.769 -4.59,0 -8.031,-1.359 -10.324,-4.09 -2.297,-2.722 -3.441,-6.383 -3.441,-10.972 v -3.231 h -26.68 v 2.801" /><path
         id="path164"
         style="fill:#27963c;fill-opacity:1;fill-rule:nonzero;stroke:none"
         d="m 1008.45,651.84 v -13.559 h 0.43 c 3.15,5.739 7.24,9.93 12.26,12.578 5.02,2.661 10.76,3.993 17.21,3.993 9.47,0 16.75,-2.582 21.84,-7.75 5.09,-5.161 7.64,-13.551 7.64,-25.172 v -85.852 h -29.69 v 79.82 c 0,6.032 -1.01,10.231 -3.01,12.59 -2.01,2.364 -5.24,3.551 -9.69,3.551 -10.47,0 -15.7,-6.379 -15.7,-19.148 V 536.078 H 980.043 V 651.84 h 28.407" /><path
         id="path166"
         style="fill:#27963c;fill-opacity:1;fill-rule:nonzero;stroke:none"
         d="M 1225.97,689.699 V 664.32 h -54.86 v -36.148 h 51.63 v -25.391 h -51.63 v -66.703 h -30.99 v 153.621 h 85.85" /><path
         id="path168"
         style="fill:#27963c;fill-opacity:1;fill-rule:nonzero;stroke:none"
         d="m 1288.59,618.809 c -0.43,3.371 -1.19,6.242 -2.26,8.613 -1.08,2.359 -2.58,4.16 -4.52,5.379 -1.94,1.211 -4.41,1.82 -7.43,1.82 -3.01,0 -5.48,-0.68 -7.42,-2.043 -1.93,-1.367 -3.47,-3.156 -4.62,-5.379 -1.15,-2.23 -1.97,-4.699 -2.48,-7.418 -0.5,-2.73 -0.75,-5.461 -0.75,-8.191 v -4.508 h 30.34 c -0.15,4.449 -0.43,8.348 -0.86,11.727 z m -29.48,-38.618 c 0,-3.453 0.25,-6.781 0.75,-10.011 0.51,-3.219 1.33,-6.09 2.48,-8.598 1.15,-2.512 2.65,-4.531 4.52,-6.031 1.86,-1.5 4.16,-2.262 6.88,-2.262 5.02,0 8.68,1.789 10.98,5.383 2.29,3.578 3.87,9.039 4.73,16.348 h 26.68 c -0.58,-13.481 -4.16,-23.739 -10.76,-30.77 -6.6,-7.031 -17,-10.539 -31.2,-10.539 -10.76,0 -19.15,1.789 -25.17,5.379 -6.03,3.582 -10.47,8.32 -13.34,14.199 -2.87,5.883 -4.63,12.481 -5.27,19.801 -0.65,7.308 -0.97,14.629 -0.97,21.941 0,7.75 0.54,15.207 1.61,22.379 1.08,7.172 3.23,13.551 6.46,19.149 3.22,5.589 7.85,10.031 13.87,13.339 6.03,3.301 14.06,4.954 24.1,4.954 8.61,0 15.67,-1.403 21.2,-4.204 5.52,-2.796 9.86,-6.738 13.01,-11.828 3.16,-5.101 5.31,-11.269 6.46,-18.5 1.15,-7.25 1.72,-15.32 1.72,-24.211 v -6.668 h -58.74 v -9.25" /><path
         id="path170"
         style="fill:#27963c;fill-opacity:1;fill-rule:nonzero;stroke:none"
         d="m 1361.74,651.84 v -15.5 h 0.43 c 3.02,5.601 6.67,10.082 10.97,13.449 4.31,3.371 9.54,5.063 15.71,5.063 0.86,0 1.76,-0.043 2.69,-0.114 0.93,-0.078 1.83,-0.187 2.69,-0.316 V 626.02 c -1.58,0.14 -3.12,0.242 -4.63,0.32 -1.5,0.07 -3.04,0.109 -4.62,0.109 -2.58,0 -5.17,-0.359 -7.75,-1.078 -2.58,-0.723 -4.94,-1.902 -7.1,-3.551 -2.15,-1.648 -3.87,-3.8 -5.16,-6.461 -1.29,-2.648 -1.94,-5.91 -1.94,-9.781 v -69.5 h -29.69 V 651.84 h 28.4" /><path
         id="path172"
         style="fill:#27963c;fill-opacity:1;fill-rule:nonzero;stroke:none"
         d="M 1441.13,684.969 V 651.84 h 17.21 v -20.231 h -17.21 V 569 c 0,-4.59 0.68,-7.852 2.05,-9.789 1.36,-1.941 4.19,-2.91 8.49,-2.91 1.15,0 2.3,0.039 3.45,0.109 1.14,0.07 2.22,0.18 3.22,0.32 v -20.652 c -3.3,0 -6.48,-0.109 -9.57,-0.316 -3.09,-0.223 -6.35,-0.332 -9.79,-0.332 -5.74,0 -10.44,0.402 -14.09,1.179 -3.66,0.801 -6.46,2.371 -8.39,4.743 -1.94,2.359 -3.27,5.488 -3.99,9.359 -0.71,3.871 -1.07,8.75 -1.07,14.629 v 66.269 h -15.06 v 20.231 h 15.06 v 33.129 h 29.69" /><path
         id="path174"
         style="fill:#27963c;fill-opacity:1;fill-rule:nonzero;stroke:none"
         d="M 1499.44,651.84 V 536.078 h -29.69 V 651.84 Z m 0,39.59 v -25.391 h -29.69 v 25.391 h 29.69" /><path
         id="path176"
         style="fill:#27963c;fill-opacity:1;fill-rule:nonzero;stroke:none"
         d="M 1551.07,689.699 V 536.078 h -29.69 v 153.621 h 29.69" /><path
         id="path178"
         style="fill:#27963c;fill-opacity:1;fill-rule:nonzero;stroke:none"
         d="M 1602.71,651.84 V 536.078 h -29.69 V 651.84 Z m 0,39.59 v -25.391 h -29.69 v 25.391 h 29.69" /><path
         id="path180"
         style="fill:#27963c;fill-opacity:1;fill-rule:nonzero;stroke:none"
         d="M 1665.11,627.738 H 1621 v 24.102 h 79.19 v -22.809 l -46.27,-68.851 h 46.27 v -24.102 h -81.34 v 22.801 l 46.26,68.859" /><path
         id="path182"
         style="fill:#27963c;fill-opacity:1;fill-rule:nonzero;stroke:none"
         d="m 1770.11,618.809 c -0.43,3.371 -1.18,6.242 -2.26,8.613 -1.08,2.359 -2.59,4.16 -4.52,5.379 -1.93,1.211 -4.41,1.82 -7.42,1.82 -3.02,0 -5.49,-0.68 -7.42,-2.043 -1.95,-1.367 -3.49,-3.156 -4.63,-5.379 -1.15,-2.23 -1.98,-4.699 -2.48,-7.418 -0.5,-2.73 -0.75,-5.461 -0.75,-8.191 v -4.508 h 30.34 c -0.15,4.449 -0.43,8.348 -0.86,11.727 z m -29.48,-38.618 c 0,-3.453 0.25,-6.781 0.75,-10.011 0.5,-3.219 1.33,-6.09 2.48,-8.598 1.14,-2.512 2.64,-4.531 4.52,-6.031 1.85,-1.5 4.15,-2.262 6.88,-2.262 5.02,0 8.68,1.789 10.97,5.383 2.3,3.578 3.88,9.039 4.74,16.348 h 26.68 c -0.58,-13.481 -4.16,-23.739 -10.77,-30.77 -6.59,-7.031 -16.99,-10.539 -31.19,-10.539 -10.76,0 -19.15,1.789 -25.17,5.379 -6.03,3.582 -10.48,8.32 -13.34,14.199 -2.87,5.883 -4.63,12.481 -5.28,19.801 -0.64,7.308 -0.96,14.629 -0.96,21.941 0,7.75 0.53,15.207 1.61,22.379 1.07,7.172 3.23,13.551 6.45,19.149 3.24,5.589 7.86,10.031 13.88,13.339 6.03,3.301 14.06,4.954 24.1,4.954 8.61,0 15.67,-1.403 21.19,-4.204 5.52,-2.796 9.87,-6.738 13.02,-11.828 3.16,-5.101 5.3,-11.269 6.46,-18.5 1.14,-7.25 1.72,-15.32 1.72,-24.211 v -6.668 h -58.74 v -9.25" /><path
         id="path184"
         style="fill:#27963c;fill-opacity:1;fill-rule:nonzero;stroke:none"
         d="m 1843.26,651.84 v -15.5 h 0.43 c 3.01,5.601 6.67,10.082 10.98,13.449 4.29,3.371 9.53,5.063 15.7,5.063 0.86,0 1.76,-0.043 2.69,-0.114 0.93,-0.078 1.83,-0.187 2.69,-0.316 V 626.02 c -1.58,0.14 -3.12,0.242 -4.63,0.32 -1.5,0.07 -3.04,0.109 -4.63,0.109 -2.57,0 -5.15,-0.359 -7.74,-1.078 -2.58,-0.723 -4.95,-1.902 -7.1,-3.551 -2.15,-1.648 -3.87,-3.8 -5.17,-6.461 -1.28,-2.648 -1.93,-5.91 -1.93,-9.781 v -69.5 h -29.69 V 651.84 h 28.4" /><path
         id="path186"
         style="fill:#27963c;fill-opacity:1;fill-rule:nonzero;stroke:none"
         d="m 1995.17,593.961 -14.85,69.059 h -0.43 l -14.84,-69.059 z m 4.09,95.738 40.66,-153.621 h -32.27 l -7.1,32.492 h -40.88 l -7.1,-32.492 h -32.28 l 40.67,153.621 h 38.3" /><path
         id="path188"
         style="fill:#27963c;fill-opacity:1;fill-rule:nonzero;stroke:none"
         d="m 2071.55,570.07 c 0,-5.019 1.32,-9.07 3.98,-12.16 2.65,-3.082 6.49,-4.621 11.51,-4.621 4.59,0 8.25,1.152 10.98,3.441 2.72,2.301 4.08,5.731 4.08,10.329 0,3.722 -1.07,6.57 -3.22,8.5 -2.15,1.929 -4.67,3.48 -7.53,4.632 l -20.87,7.528 c -8.19,2.871 -14.35,6.91 -18.51,12.16 -4.16,5.23 -6.24,11.941 -6.24,20.109 0,4.731 0.78,9.211 2.37,13.453 1.58,4.231 4.09,7.918 7.53,11.071 3.44,3.16 7.86,5.679 13.23,7.539 5.38,1.859 11.87,2.801 19.47,2.801 13.49,0 23.46,-2.872 29.91,-8.614 6.46,-5.738 9.68,-13.84 9.68,-24.308 v -4.739 h -26.68 c 0,6.028 -0.97,10.438 -2.9,13.231 -1.93,2.808 -5.34,4.199 -10.22,4.199 -3.74,0 -7,-1.043 -9.79,-3.109 -2.8,-2.09 -4.2,-5.211 -4.2,-9.371 0,-2.871 0.9,-5.45 2.7,-7.743 1.78,-2.296 5.19,-4.238 10.21,-5.808 l 17.86,-6.031 c 9.33,-3.149 15.92,-7.278 19.8,-12.368 3.86,-5.089 5.81,-12.011 5.81,-20.761 0,-6.168 -1.08,-11.52 -3.23,-16.032 -2.15,-4.519 -5.13,-8.289 -8.93,-11.296 -3.8,-3.012 -8.32,-5.161 -13.56,-6.454 -5.23,-1.289 -11.01,-1.937 -17.32,-1.937 -8.32,0 -15.24,0.801 -20.76,2.367 -5.53,1.57 -9.89,3.942 -13.13,7.102 -3.22,3.148 -5.48,6.992 -6.77,11.511 -1.29,4.52 -1.94,9.571 -1.94,15.168 v 4.09 h 26.68 v -3.879" /><path
         id="path190"
         style="fill:#27963c;fill-opacity:1;fill-rule:nonzero;stroke:none"
         d="m 2167.08,570.07 c 0,-5.019 1.32,-9.07 3.97,-12.16 2.66,-3.082 6.5,-4.621 11.52,-4.621 4.59,0 8.25,1.152 10.97,3.441 2.73,2.301 4.09,5.731 4.09,10.329 0,3.722 -1.08,6.57 -3.23,8.5 -2.14,1.929 -4.66,3.48 -7.52,4.632 l -20.87,7.528 c -8.19,2.871 -14.35,6.91 -18.51,12.16 -4.16,5.23 -6.24,11.941 -6.24,20.109 0,4.731 0.78,9.211 2.36,13.453 1.59,4.231 4.09,7.918 7.53,11.071 3.45,3.16 7.86,5.679 13.23,7.539 5.39,1.859 11.88,2.801 19.48,2.801 13.48,0 23.45,-2.872 29.91,-8.614 6.45,-5.738 9.68,-13.84 9.68,-24.308 v -4.739 h -26.68 c 0,6.028 -0.97,10.438 -2.9,13.231 -1.94,2.808 -5.34,4.199 -10.23,4.199 -3.73,0 -6.99,-1.043 -9.78,-3.109 -2.81,-2.09 -4.2,-5.211 -4.2,-9.371 0,-2.871 0.9,-5.45 2.69,-7.743 1.79,-2.296 5.2,-4.238 10.22,-5.808 l 17.86,-6.031 c 9.33,-3.149 15.92,-7.278 19.79,-12.368 3.87,-5.089 5.82,-12.011 5.82,-20.761 0,-6.168 -1.08,-11.52 -3.24,-16.032 -2.15,-4.519 -5.12,-8.289 -8.92,-11.296 -3.8,-3.012 -8.32,-5.161 -13.56,-6.454 -5.23,-1.289 -11.01,-1.937 -17.32,-1.937 -8.32,0 -15.25,0.801 -20.76,2.367 -5.53,1.57 -9.9,3.942 -13.13,7.102 -3.22,3.148 -5.49,6.992 -6.78,11.511 -1.29,4.52 -1.93,9.571 -1.93,15.168 v 4.09 h 26.68 v -3.879" /><path
         id="path192"
         style="fill:#27963c;fill-opacity:1;fill-rule:nonzero;stroke:none"
         d="m 2267.12,577.602 c 0.29,-5.024 0.98,-9.332 2.05,-12.911 1.07,-3.582 2.69,-6.382 4.84,-8.39 2.15,-2.012 5.02,-3.012 8.61,-3.012 6.02,0 10.18,3.16 12.48,9.473 2.29,6.308 3.44,16.707 3.44,31.199 0,14.48 -1.15,24.879 -3.44,31.199 -2.3,6.309 -6.46,9.461 -12.48,9.461 -3.59,0 -6.46,-1 -8.61,-3.012 -2.15,-2.007 -3.77,-4.808 -4.84,-8.39 -1.07,-3.59 -1.76,-7.887 -2.05,-12.91 -0.28,-5.02 -0.43,-10.469 -0.43,-16.348 0,-5.891 0.15,-11.34 0.43,-16.359 z m -27.75,42.609 c 1.58,7.598 4.16,13.937 7.74,19.039 3.58,5.09 8.29,8.961 14.1,11.609 5.8,2.661 12.94,3.993 21.41,3.993 8.88,0.136 16.28,-1.051 22.16,-3.551 5.87,-2.52 10.54,-6.352 13.98,-11.512 3.45,-5.168 5.88,-11.551 7.31,-19.148 1.44,-7.61 2.16,-16.5 2.16,-26.68 0,-9.902 -0.79,-18.652 -2.37,-26.25 -1.57,-7.609 -4.16,-13.961 -7.74,-19.039 -3.59,-5.102 -8.29,-8.863 -14.1,-11.301 -5.81,-2.441 -12.95,-3.66 -21.4,-3.66 -8.9,-0.141 -16.28,0.969 -22.17,3.328 -5.88,2.379 -10.54,6.102 -13.99,11.199 -3.43,5.082 -5.87,11.473 -7.31,19.153 -1.44,7.66 -2.15,16.519 -2.15,26.57 0,9.891 0.78,18.641 2.37,26.25" /><path
         id="path194"
         style="fill:#27963c;fill-opacity:1;fill-rule:nonzero;stroke:none"
         d="m 2399.35,618.488 c -0.37,2.711 -1.01,5.192 -1.94,7.422 -0.94,2.219 -2.26,4.02 -3.98,5.371 -1.72,1.367 -4.02,2.051 -6.89,2.051 -3.58,0 -6.53,-0.832 -8.82,-2.48 -2.3,-1.653 -4.02,-4.082 -5.16,-7.313 -1.15,-3.219 -1.93,-7.32 -2.37,-12.269 -0.43,-4.942 -0.65,-10.79 -0.65,-17.532 0,-7.168 0.22,-13.308 0.65,-18.398 0.44,-5.09 1.22,-9.281 2.37,-12.578 1.14,-3.301 2.75,-5.711 4.84,-7.211 2.07,-1.5 4.77,-2.262 8.07,-2.262 5.02,0 8.67,2.152 10.97,6.461 2.29,4.301 3.44,11.18 3.44,20.648 h 28.4 c 0,-15.199 -3.41,-26.777 -10.21,-34.75 -6.82,-7.957 -18.12,-11.937 -33.89,-11.937 -7.46,0 -13.96,0.898 -19.47,2.687 -5.53,1.801 -10.12,5.024 -13.77,9.692 -3.66,4.66 -6.43,10.898 -8.29,18.711 -1.87,7.82 -2.8,17.539 -2.8,29.16 0,11.898 1.15,21.769 3.44,29.578 2.3,7.82 5.53,14.063 9.69,18.723 4.16,4.66 9.1,7.929 14.84,9.789 5.73,1.859 12.05,2.801 18.94,2.801 13.77,0 24.13,-4.02 31.09,-12.051 6.95,-8.039 10.43,-18.942 10.43,-32.711 h -28.4 c 0,2.871 -0.18,5.672 -0.53,8.398" /><path
         id="path196"
         style="fill:#27963c;fill-opacity:1;fill-rule:nonzero;stroke:none"
         d="M 2474.54,651.84 V 536.078 h -29.69 V 651.84 Z m 0,39.59 v -25.391 h -29.69 v 25.391 h 29.69" /><path
         id="path198"
         style="fill:#27963c;fill-opacity:1;fill-rule:nonzero;stroke:none"
         d="m 2542.97,590.191 c -2.3,-0.929 -4.38,-1.613 -6.24,-2.043 -6.03,-1.289 -10.33,-3.449 -12.91,-6.457 -2.59,-3.011 -3.88,-7.101 -3.88,-12.261 0,-4.45 0.86,-8.25 2.59,-11.41 1.72,-3.149 4.59,-4.731 8.6,-4.731 2,0 4.09,0.332 6.24,0.973 2.15,0.648 4.12,1.679 5.92,3.117 1.79,1.43 3.26,3.301 4.41,5.59 1.15,2.301 1.72,5.019 1.72,8.179 v 22.813 c -2.01,-1.582 -4.16,-2.832 -6.45,-3.77 z m -47.77,28.938 c 0,6.742 1.08,12.383 3.23,16.891 2.15,4.519 5.06,8.171 8.71,10.98 3.66,2.789 7.97,4.801 12.91,6.02 4.95,1.21 10.22,1.832 15.82,1.832 8.89,0 16.06,-0.864 21.51,-2.582 5.45,-1.731 9.68,-4.168 12.7,-7.321 3.01,-3.16 5.06,-6.918 6.13,-11.289 1.08,-4.379 1.61,-9.148 1.61,-14.308 v -60.903 c 0,-5.449 0.26,-9.679 0.75,-12.687 0.5,-3.012 1.48,-6.242 2.91,-9.684 h -28.4 c -1.01,1.863 -1.76,3.844 -2.26,5.922 -0.51,2.078 -0.97,4.121 -1.4,6.129 h -0.43 c -3.44,-6.027 -7.42,-9.93 -11.94,-11.731 -4.52,-1.789 -10.37,-2.687 -17.54,-2.687 -5.16,0 -9.54,0.898 -13.12,2.687 -3.59,1.801 -6.46,4.27 -8.61,7.422 -2.15,3.16 -3.73,6.711 -4.73,10.66 -1.01,3.942 -1.51,7.848 -1.51,11.719 0,5.449 0.57,10.153 1.72,14.102 1.15,3.937 2.91,7.308 5.28,10.097 2.36,2.813 5.38,5.133 9.03,7 3.66,1.864 8.07,3.512 13.23,4.954 l 16.79,4.519 c 4.44,1.141 7.53,2.719 9.25,4.719 1.72,2.019 2.58,4.961 2.58,8.832 0,4.449 -1.04,7.918 -3.12,10.43 -2.08,2.507 -5.63,3.769 -10.65,3.769 -4.6,0 -8.03,-1.359 -10.33,-4.09 -2.29,-2.722 -3.44,-6.383 -3.44,-10.972 v -3.231 h -26.68 v 2.801" /><path
         id="path200"
         style="fill:#27963c;fill-opacity:1;fill-rule:nonzero;stroke:none"
         d="M 2635.05,684.969 V 651.84 h 17.22 v -20.231 h -17.22 V 569 c 0,-4.59 0.68,-7.852 2.04,-9.789 1.37,-1.941 4.2,-2.91 8.51,-2.91 1.14,0 2.28,0.039 3.43,0.109 1.16,0.07 2.23,0.18 3.24,0.32 v -20.652 c -3.31,0 -6.5,-0.109 -9.58,-0.316 -3.09,-0.223 -6.35,-0.332 -9.79,-0.332 -5.74,0 -10.44,0.402 -14.09,1.179 -3.66,0.801 -6.46,2.371 -8.4,4.743 -1.93,2.359 -3.26,5.488 -3.97,9.359 -0.73,3.871 -1.09,8.75 -1.09,14.629 v 66.269 h -15.06 v 20.231 h 15.06 v 33.129 h 29.7" /><path
         id="path202"
         style="fill:#27963c;fill-opacity:1;fill-rule:nonzero;stroke:none"
         d="M 2693.35,651.84 V 536.078 h -29.69 V 651.84 Z m 0,39.59 v -25.391 h -29.69 v 25.391 h 29.69" /><path
         id="path204"
         style="fill:#27963c;fill-opacity:1;fill-rule:nonzero;stroke:none"
         d="m 2740.47,577.602 c 0.29,-5.024 0.98,-9.332 2.05,-12.911 1.07,-3.582 2.69,-6.382 4.84,-8.39 2.15,-2.012 5.02,-3.012 8.61,-3.012 6.02,0 10.18,3.16 12.48,9.473 2.29,6.308 3.43,16.707 3.43,31.199 0,14.48 -1.14,24.879 -3.43,31.199 -2.3,6.309 -6.46,9.461 -12.48,9.461 -3.59,0 -6.46,-1 -8.61,-3.012 -2.15,-2.007 -3.77,-4.808 -4.84,-8.39 -1.07,-3.59 -1.76,-7.887 -2.05,-12.91 -0.28,-5.02 -0.43,-10.469 -0.43,-16.348 0,-5.891 0.15,-11.34 0.43,-16.359 z m -27.76,42.609 c 1.59,7.598 4.17,13.937 7.75,19.039 3.58,5.09 8.29,8.961 14.1,11.609 5.8,2.661 12.94,3.993 21.41,3.993 8.88,0.136 16.28,-1.051 22.16,-3.551 5.87,-2.52 10.54,-6.352 13.98,-11.512 3.45,-5.168 5.88,-11.551 7.31,-19.148 1.44,-7.61 2.16,-16.5 2.16,-26.68 0,-9.902 -0.79,-18.652 -2.37,-26.25 -1.57,-7.609 -4.16,-13.961 -7.75,-19.039 -3.58,-5.102 -8.28,-8.863 -14.09,-11.301 -5.81,-2.441 -12.95,-3.66 -21.4,-3.66 -8.9,-0.141 -16.28,0.969 -22.17,3.328 -5.88,2.379 -10.54,6.102 -13.99,11.199 -3.43,5.082 -5.87,11.473 -7.31,19.153 -1.44,7.66 -2.15,16.519 -2.15,26.57 0,9.891 0.78,18.641 2.36,26.25" /><path
         id="path206"
         style="fill:#27963c;fill-opacity:1;fill-rule:nonzero;stroke:none"
         d="m 2845.91,651.84 v -13.559 h 0.43 c 3.15,5.739 7.23,9.93 12.26,12.578 5.02,2.661 10.76,3.993 17.21,3.993 9.47,0 16.75,-2.582 21.85,-7.75 5.08,-5.161 7.63,-13.551 7.63,-25.172 v -85.852 h -29.69 v 79.82 c 0,6.032 -1.01,10.231 -3.01,12.59 -2.01,2.364 -5.24,3.551 -9.69,3.551 -10.47,0 -15.7,-6.379 -15.7,-19.148 v -76.813 h -29.69 V 651.84 h 28.4" /></g></g></svg>